<?xml version="1.0" encoding="UTF-8" standalone="no"?>
<!DOCTYPE svg PUBLIC "-//W3C//DTD SVG 1.1//EN"
 "http://www.w3.org/Graphics/SVG/1.1/DTD/svg11.dtd">
<!-- Generated by graphviz version 2.43.0 (0)
 -->
<!-- Title: %3 Pages: 1 -->
<svg width="310pt" height="1822pt"
 viewBox="0.00 0.00 309.50 1822.00" xmlns="http://www.w3.org/2000/svg" xmlns:xlink="http://www.w3.org/1999/xlink">
<g id="graph0" class="graph" transform="scale(1 1) rotate(0) translate(4 1818)">
<title>%3</title>
<g id="a_graph0"><a xlink:title=" ">
<polygon fill="white" stroke="transparent" points="-4,4 -4,-1818 305.5,-1818 305.5,4 -4,4"/>
</a>
</g>
<!-- (below main) -->
<g id="node1" class="node">
<title>(below main)</title>
<polygon fill="#ff0000" stroke="#ff0000" points="173,-1711 101,-1711 101,-1648 173,-1648 173,-1711"/>
<text text-anchor="middle" x="137" y="-1699" font-family="Arial" font-size="10.00" fill="#ffffff">libc.so.6</text>
<text text-anchor="middle" x="137" y="-1688" font-family="Arial" font-size="10.00" fill="#ffffff">(below main)</text>
<text text-anchor="middle" x="137" y="-1677" font-family="Arial" font-size="10.00" fill="#ffffff">100.00%</text>
<text text-anchor="middle" x="137" y="-1666" font-family="Arial" font-size="10.00" fill="#ffffff">(0.00%)</text>
<text text-anchor="middle" x="137" y="-1655" font-family="Arial" font-size="10.00" fill="#ffffff">2×</text>
</g>
<!-- main -->
<g id="node2" class="node">
<title>main</title>
<polygon fill="#ff0000" stroke="#ff0000" points="179,-1608 95,-1608 95,-1545 179,-1545 179,-1608"/>
<text text-anchor="middle" x="137" y="-1596" font-family="Arial" font-size="10.00" fill="#ffffff">TensorForth_cg</text>
<text text-anchor="middle" x="137" y="-1585" font-family="Arial" font-size="10.00" fill="#ffffff">main</text>
<text text-anchor="middle" x="137" y="-1574" font-family="Arial" font-size="10.00" fill="#ffffff">100.00%</text>
<text text-anchor="middle" x="137" y="-1563" font-family="Arial" font-size="10.00" fill="#ffffff">(0.00%)</text>
<text text-anchor="middle" x="137" y="-1552" font-family="Arial" font-size="10.00" fill="#ffffff">1×</text>
</g>
<!-- (below main)&#45;&gt;main -->
<g id="edge1" class="edge">
<title>(below main)&#45;&gt;main</title>
<path fill="none" stroke="#ff0000" stroke-width="4" d="M137,-1647.92C137,-1638.61 137,-1628.23 137,-1618.36"/>
<polygon fill="#ff0000" stroke="#ff0000" stroke-width="4" points="140.5,-1618.32 137,-1608.32 133.5,-1618.32 140.5,-1618.32"/>
<text text-anchor="middle" x="156.5" y="-1631" font-family="Arial" font-size="10.00" fill="#ff0000">100.00%</text>
<text text-anchor="middle" x="156.5" y="-1620" font-family="Arial" font-size="10.00" fill="#ff0000">1×</text>
</g>
<!-- parser -->
<g id="node21" class="node">
<title>parser</title>
<polygon fill="#ff0000" stroke="#ff0000" points="179,-1505 95,-1505 95,-1442 179,-1442 179,-1505"/>
<text text-anchor="middle" x="137" y="-1493" font-family="Arial" font-size="10.00" fill="#ffffff">TensorForth_cg</text>
<text text-anchor="middle" x="137" y="-1482" font-family="Arial" font-size="10.00" fill="#ffffff">parser</text>
<text text-anchor="middle" x="137" y="-1471" font-family="Arial" font-size="10.00" fill="#ffffff">100.00%</text>
<text text-anchor="middle" x="137" y="-1460" font-family="Arial" font-size="10.00" fill="#ffffff">(0.00%)</text>
<text text-anchor="middle" x="137" y="-1449" font-family="Arial" font-size="10.00" fill="#ffffff">1×</text>
</g>
<!-- main&#45;&gt;parser -->
<g id="edge16" class="edge">
<title>main&#45;&gt;parser</title>
<path fill="none" stroke="#ff0000" stroke-width="4" d="M137,-1544.92C137,-1535.61 137,-1525.23 137,-1515.36"/>
<polygon fill="#ff0000" stroke="#ff0000" stroke-width="4" points="140.5,-1515.32 137,-1505.32 133.5,-1515.32 140.5,-1515.32"/>
<text text-anchor="middle" x="156.5" y="-1528" font-family="Arial" font-size="10.00" fill="#ff0000">100.00%</text>
<text text-anchor="middle" x="156.5" y="-1517" font-family="Arial" font-size="10.00" fill="#ff0000">1×</text>
</g>
<!-- 0x000000000001f540 -->
<g id="node3" class="node">
<title>0x000000000001f540</title>
<polygon fill="#ff0000" stroke="#ff0000" points="191.5,-1814 82.5,-1814 82.5,-1751 191.5,-1751 191.5,-1814"/>
<text text-anchor="middle" x="137" y="-1802" font-family="Arial" font-size="10.00" fill="#ffffff">ld&#45;linux&#45;x86&#45;64.so.2</text>
<text text-anchor="middle" x="137" y="-1791" font-family="Arial" font-size="10.00" fill="#ffffff">0x000000000001f540</text>
<text text-anchor="middle" x="137" y="-1780" font-family="Arial" font-size="10.00" fill="#ffffff">100.00%</text>
<text text-anchor="middle" x="137" y="-1769" font-family="Arial" font-size="10.00" fill="#ffffff">(0.00%)</text>
<text text-anchor="middle" x="137" y="-1758" font-family="Arial" font-size="10.00" fill="#ffffff">0×</text>
</g>
<!-- 0x000000000001f540&#45;&gt;(below main) -->
<g id="edge2" class="edge">
<title>0x000000000001f540&#45;&gt;(below main)</title>
<path fill="none" stroke="#ff0000" stroke-width="4" d="M137,-1750.92C137,-1741.61 137,-1731.23 137,-1721.36"/>
<polygon fill="#ff0000" stroke="#ff0000" stroke-width="4" points="140.5,-1721.32 137,-1711.32 133.5,-1721.32 140.5,-1721.32"/>
<text text-anchor="middle" x="156.5" y="-1734" font-family="Arial" font-size="10.00" fill="#ff0000">100.00%</text>
<text text-anchor="middle" x="156.5" y="-1723" font-family="Arial" font-size="10.00" fill="#ff0000">1×</text>
</g>
<!-- 0x0000000000022640 -->
<g id="node4" class="node">
<title>0x0000000000022640</title>
<polygon fill="#99d007" stroke="#99d007" points="204.5,-269 93.5,-269 93.5,-206 204.5,-206 204.5,-269"/>
<text text-anchor="middle" x="149" y="-257" font-family="Arial" font-size="10.00" fill="#ffffff">libgomp.so.1.0.0</text>
<text text-anchor="middle" x="149" y="-246" font-family="Arial" font-size="10.00" fill="#ffffff">0x0000000000022640</text>
<text text-anchor="middle" x="149" y="-235" font-family="Arial" font-size="10.00" fill="#ffffff">68.19%</text>
<text text-anchor="middle" x="149" y="-224" font-family="Arial" font-size="10.00" fill="#ffffff">(0.00%)</text>
<text text-anchor="middle" x="149" y="-213" font-family="Arial" font-size="10.00" fill="#ffffff">3×</text>
</g>
<!-- blocked_multiply._omp_fn.0 -->
<g id="node5" class="node">
<title>blocked_multiply._omp_fn.0</title>
<polygon fill="#f44802" stroke="#f44802" points="155.5,-166 18.5,-166 18.5,-103 155.5,-103 155.5,-166"/>
<text text-anchor="middle" x="87" y="-154" font-family="Arial" font-size="10.00" fill="#ffffff">TensorForth_cg</text>
<text text-anchor="middle" x="87" y="-143" font-family="Arial" font-size="10.00" fill="#ffffff">blocked_multiply._omp_fn.0</text>
<text text-anchor="middle" x="87" y="-132" font-family="Arial" font-size="10.00" fill="#ffffff">92.80%</text>
<text text-anchor="middle" x="87" y="-121" font-family="Arial" font-size="10.00" fill="#ffffff">(0.00%)</text>
<text text-anchor="middle" x="87" y="-110" font-family="Arial" font-size="10.00" fill="#ffffff">32×</text>
</g>
<!-- 0x0000000000022640&#45;&gt;blocked_multiply._omp_fn.0 -->
<g id="edge3" class="edge">
<title>0x0000000000022640&#45;&gt;blocked_multiply._omp_fn.0</title>
<path fill="none" stroke="#99d007" stroke-width="2.73" d="M130.23,-205.92C123.97,-195.73 116.93,-184.25 110.37,-173.57"/>
<polygon fill="#99d007" stroke="#99d007" stroke-width="2.73" points="112.74,-171.88 105.92,-166.32 107.79,-174.92 112.74,-171.88"/>
<text text-anchor="middle" x="141" y="-189" font-family="Arial" font-size="10.00" fill="#99d007">68.15%</text>
<text text-anchor="middle" x="141" y="-178" font-family="Arial" font-size="10.00" fill="#99d007">24×</text>
</g>
<!-- kernel -->
<g id="node16" class="node">
<title>kernel</title>
<polygon fill="#f44802" stroke="#f44802" points="129,-63 45,-63 45,0 129,0 129,-63"/>
<text text-anchor="middle" x="87" y="-51" font-family="Arial" font-size="10.00" fill="#ffffff">TensorForth_cg</text>
<text text-anchor="middle" x="87" y="-40" font-family="Arial" font-size="10.00" fill="#ffffff">kernel</text>
<text text-anchor="middle" x="87" y="-29" font-family="Arial" font-size="10.00" fill="#ffffff">92.80%</text>
<text text-anchor="middle" x="87" y="-18" font-family="Arial" font-size="10.00" fill="#ffffff">(92.80%)</text>
<text text-anchor="middle" x="87" y="-7" font-family="Arial" font-size="10.00" fill="#ffffff">17576×</text>
</g>
<!-- blocked_multiply._omp_fn.0&#45;&gt;kernel -->
<g id="edge12" class="edge">
<title>blocked_multiply._omp_fn.0&#45;&gt;kernel</title>
<path fill="none" stroke="#f44802" stroke-width="3.71" d="M87,-102.92C87,-93.52 87,-83.01 87,-73.05"/>
<polygon fill="#f44802" stroke="#f44802" stroke-width="3.71" points="90.36,-72.92 87,-63.32 83.64,-72.92 90.36,-72.92"/>
<text text-anchor="middle" x="104" y="-86" font-family="Arial" font-size="10.00" fill="#f44802">92.80%</text>
<text text-anchor="middle" x="104" y="-75" font-family="Arial" font-size="10.00" fill="#f44802">17576×</text>
</g>
<!-- 0x00000000000229f0 -->
<g id="node6" class="node">
<title>0x00000000000229f0</title>
<polygon fill="#99d007" stroke="#99d007" points="201.5,-990 92.5,-990 92.5,-927 201.5,-927 201.5,-990"/>
<text text-anchor="middle" x="147" y="-978" font-family="Arial" font-size="10.00" fill="#ffffff">libgomp.so.1.0.0</text>
<text text-anchor="middle" x="147" y="-967" font-family="Arial" font-size="10.00" fill="#ffffff">0x00000000000229f0</text>
<text text-anchor="middle" x="147" y="-956" font-family="Arial" font-size="10.00" fill="#ffffff">68.19%</text>
<text text-anchor="middle" x="147" y="-945" font-family="Arial" font-size="10.00" fill="#ffffff">(0.00%)</text>
<text text-anchor="middle" x="147" y="-934" font-family="Arial" font-size="10.00" fill="#ffffff">8×</text>
</g>
<!-- 0x0000000004855c70 -->
<g id="node7" class="node">
<title>0x0000000004855c70</title>
<polygon fill="#99d007" stroke="#99d007" points="214.5,-887 103.5,-887 103.5,-824 214.5,-824 214.5,-887"/>
<text text-anchor="middle" x="159" y="-875" font-family="Arial" font-size="10.00" fill="#ffffff">???</text>
<text text-anchor="middle" x="159" y="-864" font-family="Arial" font-size="10.00" fill="#ffffff">0x0000000004855c70</text>
<text text-anchor="middle" x="159" y="-853" font-family="Arial" font-size="10.00" fill="#ffffff">68.19%</text>
<text text-anchor="middle" x="159" y="-842" font-family="Arial" font-size="10.00" fill="#ffffff">(0.00%)</text>
<text text-anchor="middle" x="159" y="-831" font-family="Arial" font-size="10.00" fill="#ffffff">3×</text>
</g>
<!-- 0x00000000000229f0&#45;&gt;0x0000000004855c70 -->
<g id="edge4" class="edge">
<title>0x00000000000229f0&#45;&gt;0x0000000004855c70</title>
<path fill="none" stroke="#99d007" stroke-width="2.73" d="M150.63,-926.92C151.8,-917.12 153.1,-906.14 154.33,-895.8"/>
<polygon fill="#99d007" stroke="#99d007" stroke-width="2.73" points="157.24,-895.91 155.34,-887.32 151.47,-895.22 157.24,-895.91"/>
<text text-anchor="middle" x="172" y="-910" font-family="Arial" font-size="10.00" fill="#99d007">68.19%</text>
<text text-anchor="middle" x="172" y="-899" font-family="Arial" font-size="10.00" fill="#99d007">3×</text>
</g>
<!-- pthread_create@@GLIBC_2.34 -->
<g id="node12" class="node">
<title>pthread_create@@GLIBC_2.34</title>
<polygon fill="#99d007" stroke="#99d007" points="248,-784 92,-784 92,-721 248,-721 248,-784"/>
<text text-anchor="middle" x="170" y="-772" font-family="Arial" font-size="10.00" fill="#ffffff">libc.so.6</text>
<text text-anchor="middle" x="170" y="-761" font-family="Arial" font-size="10.00" fill="#ffffff">pthread_create@@GLIBC_2.34</text>
<text text-anchor="middle" x="170" y="-750" font-family="Arial" font-size="10.00" fill="#ffffff">68.19%</text>
<text text-anchor="middle" x="170" y="-739" font-family="Arial" font-size="10.00" fill="#ffffff">(0.00%)</text>
<text text-anchor="middle" x="170" y="-728" font-family="Arial" font-size="10.00" fill="#ffffff">3×</text>
</g>
<!-- 0x0000000004855c70&#45;&gt;pthread_create@@GLIBC_2.34 -->
<g id="edge7" class="edge">
<title>0x0000000004855c70&#45;&gt;pthread_create@@GLIBC_2.34</title>
<path fill="none" stroke="#99d007" stroke-width="2.73" d="M162.33,-823.92C163.4,-814.12 164.59,-803.14 165.72,-792.8"/>
<polygon fill="#99d007" stroke="#99d007" stroke-width="2.73" points="168.63,-792.89 166.64,-784.32 162.86,-792.26 168.63,-792.89"/>
<text text-anchor="middle" x="183" y="-807" font-family="Arial" font-size="10.00" fill="#99d007">68.19%</text>
<text text-anchor="middle" x="183" y="-796" font-family="Arial" font-size="10.00" fill="#99d007">3×</text>
</g>
<!-- 0x000000000010a440 -->
<g id="node8" class="node">
<title>0x000000000010a440</title>
<polygon fill="#f44702" stroke="#f44702" points="192.5,-1196 81.5,-1196 81.5,-1133 192.5,-1133 192.5,-1196"/>
<text text-anchor="middle" x="137" y="-1184" font-family="Arial" font-size="10.00" fill="#ffffff">???</text>
<text text-anchor="middle" x="137" y="-1173" font-family="Arial" font-size="10.00" fill="#ffffff">0x000000000010a440</text>
<text text-anchor="middle" x="137" y="-1162" font-family="Arial" font-size="10.00" fill="#ffffff">92.85%</text>
<text text-anchor="middle" x="137" y="-1151" font-family="Arial" font-size="10.00" fill="#ffffff">(0.00%)</text>
<text text-anchor="middle" x="137" y="-1140" font-family="Arial" font-size="10.00" fill="#ffffff">8×</text>
</g>
<!-- GOMP_parallel -->
<g id="node9" class="node">
<title>GOMP_parallel</title>
<polygon fill="#f44702" stroke="#f44702" points="181.5,-1093 92.5,-1093 92.5,-1030 181.5,-1030 181.5,-1093"/>
<text text-anchor="middle" x="137" y="-1081" font-family="Arial" font-size="10.00" fill="#ffffff">libgomp.so.1.0.0</text>
<text text-anchor="middle" x="137" y="-1070" font-family="Arial" font-size="10.00" fill="#ffffff">GOMP_parallel</text>
<text text-anchor="middle" x="137" y="-1059" font-family="Arial" font-size="10.00" fill="#ffffff">92.85%</text>
<text text-anchor="middle" x="137" y="-1048" font-family="Arial" font-size="10.00" fill="#ffffff">(0.00%)</text>
<text text-anchor="middle" x="137" y="-1037" font-family="Arial" font-size="10.00" fill="#ffffff">8×</text>
</g>
<!-- 0x000000000010a440&#45;&gt;GOMP_parallel -->
<g id="edge5" class="edge">
<title>0x000000000010a440&#45;&gt;GOMP_parallel</title>
<path fill="none" stroke="#f44702" stroke-width="3.71" d="M137,-1132.92C137,-1123.52 137,-1113.01 137,-1103.05"/>
<polygon fill="#f44702" stroke="#f44702" stroke-width="3.71" points="140.36,-1102.92 137,-1093.32 133.64,-1102.92 140.36,-1102.92"/>
<text text-anchor="middle" x="154" y="-1116" font-family="Arial" font-size="10.00" fill="#f44702">92.85%</text>
<text text-anchor="middle" x="154" y="-1105" font-family="Arial" font-size="10.00" fill="#f44702">8×</text>
</g>
<!-- GOMP_parallel&#45;&gt;blocked_multiply._omp_fn.0 -->
<g id="edge9" class="edge">
<title>GOMP_parallel&#45;&gt;blocked_multiply._omp_fn.0</title>
<path fill="none" stroke="#0c9193" stroke-width="0.99" d="M107.85,-1029.93C92.98,-1011.14 78,-985.7 78,-959.5 78,-959.5 78,-959.5 78,-236.5 78,-214.94 80.06,-190.89 82.21,-171.67"/>
<polygon fill="#0c9193" stroke="#0c9193" stroke-width="0.99" points="83.98,-171.55 82.82,-166.38 80.51,-171.15 83.98,-171.55"/>
<text text-anchor="middle" x="95" y="-601" font-family="Arial" font-size="10.00" fill="#0c9193">24.65%</text>
<text text-anchor="middle" x="95" y="-590" font-family="Arial" font-size="10.00" fill="#0c9193">8×</text>
</g>
<!-- GOMP_parallel&#45;&gt;0x00000000000229f0 -->
<g id="edge8" class="edge">
<title>GOMP_parallel&#45;&gt;0x00000000000229f0</title>
<path fill="none" stroke="#99d007" stroke-width="2.73" d="M140.03,-1029.92C141,-1020.12 142.09,-1009.14 143.11,-998.8"/>
<polygon fill="#99d007" stroke="#99d007" stroke-width="2.73" points="146.02,-998.87 143.95,-990.32 140.24,-998.3 146.02,-998.87"/>
<text text-anchor="middle" x="160" y="-1013" font-family="Arial" font-size="10.00" fill="#99d007">68.19%</text>
<text text-anchor="middle" x="160" y="-1002" font-family="Arial" font-size="10.00" fill="#99d007">8×</text>
</g>
<!-- 0x000000000010a460 -->
<g id="node10" class="node">
<title>0x000000000010a460</title>
<polygon fill="#0d1e78" stroke="#0d1e78" points="301.5,-1299 190.5,-1299 190.5,-1236 301.5,-1236 301.5,-1299"/>
<text text-anchor="middle" x="246" y="-1287" font-family="Arial" font-size="10.00" fill="#ffffff">???</text>
<text text-anchor="middle" x="246" y="-1276" font-family="Arial" font-size="10.00" fill="#ffffff">0x000000000010a460</text>
<text text-anchor="middle" x="246" y="-1265" font-family="Arial" font-size="10.00" fill="#ffffff">3.93%</text>
<text text-anchor="middle" x="246" y="-1254" font-family="Arial" font-size="10.00" fill="#ffffff">(0.13%)</text>
<text text-anchor="middle" x="246" y="-1243" font-family="Arial" font-size="10.00" fill="#ffffff">18240083×</text>
</g>
<!-- rand -->
<g id="node11" class="node">
<title>rand</title>
<polygon fill="#0d1d78" stroke="#0d1d78" points="278.5,-1196 213.5,-1196 213.5,-1133 278.5,-1133 278.5,-1196"/>
<text text-anchor="middle" x="246" y="-1184" font-family="Arial" font-size="10.00" fill="#ffffff">libc.so.6</text>
<text text-anchor="middle" x="246" y="-1173" font-family="Arial" font-size="10.00" fill="#ffffff">rand</text>
<text text-anchor="middle" x="246" y="-1162" font-family="Arial" font-size="10.00" fill="#ffffff">3.80%</text>
<text text-anchor="middle" x="246" y="-1151" font-family="Arial" font-size="10.00" fill="#ffffff">(0.40%)</text>
<text text-anchor="middle" x="246" y="-1140" font-family="Arial" font-size="10.00" fill="#ffffff">18240083×</text>
</g>
<!-- 0x000000000010a460&#45;&gt;rand -->
<g id="edge6" class="edge">
<title>0x000000000010a460&#45;&gt;rand</title>
<path fill="none" stroke="#0d1d78" stroke-width="0.5" d="M246,-1235.92C246,-1224.56 246,-1211.59 246,-1199.9"/>
<polygon fill="#0d1d78" stroke="#0d1d78" stroke-width="0.5" points="247.23,-1199.82 246,-1196.32 244.78,-1199.82 247.23,-1199.82"/>
<text text-anchor="middle" x="270.5" y="-1219" font-family="Arial" font-size="10.00" fill="#0d1d78">3.80%</text>
<text text-anchor="middle" x="270.5" y="-1208" font-family="Arial" font-size="10.00" fill="#0d1d78">18240083×</text>
</g>
<!-- random -->
<g id="node24" class="node">
<title>random</title>
<polygon fill="#0d1b77" stroke="#0d1b77" points="278.5,-1093 213.5,-1093 213.5,-1030 278.5,-1030 278.5,-1093"/>
<text text-anchor="middle" x="246" y="-1081" font-family="Arial" font-size="10.00" fill="#ffffff">libc.so.6</text>
<text text-anchor="middle" x="246" y="-1070" font-family="Arial" font-size="10.00" fill="#ffffff">random</text>
<text text-anchor="middle" x="246" y="-1059" font-family="Arial" font-size="10.00" fill="#ffffff">3.40%</text>
<text text-anchor="middle" x="246" y="-1048" font-family="Arial" font-size="10.00" fill="#ffffff">(1.53%)</text>
<text text-anchor="middle" x="246" y="-1037" font-family="Arial" font-size="10.00" fill="#ffffff">18240083×</text>
</g>
<!-- rand&#45;&gt;random -->
<g id="edge22" class="edge">
<title>rand&#45;&gt;random</title>
<path fill="none" stroke="#0d1b77" stroke-width="0.5" d="M246,-1132.92C246,-1121.56 246,-1108.59 246,-1096.9"/>
<polygon fill="#0d1b77" stroke="#0d1b77" stroke-width="0.5" points="247.23,-1096.82 246,-1093.32 244.78,-1096.82 247.23,-1096.82"/>
<text text-anchor="middle" x="270.5" y="-1116" font-family="Arial" font-size="10.00" fill="#0d1b77">3.40%</text>
<text text-anchor="middle" x="270.5" y="-1105" font-family="Arial" font-size="10.00" fill="#0d1b77">18240083×</text>
</g>
<!-- create_thread -->
<g id="node20" class="node">
<title>create_thread</title>
<polygon fill="#99d007" stroke="#99d007" points="207,-681 131,-681 131,-618 207,-618 207,-681"/>
<text text-anchor="middle" x="169" y="-669" font-family="Arial" font-size="10.00" fill="#ffffff">libc.so.6</text>
<text text-anchor="middle" x="169" y="-658" font-family="Arial" font-size="10.00" fill="#ffffff">create_thread</text>
<text text-anchor="middle" x="169" y="-647" font-family="Arial" font-size="10.00" fill="#ffffff">68.19%</text>
<text text-anchor="middle" x="169" y="-636" font-family="Arial" font-size="10.00" fill="#ffffff">(0.00%)</text>
<text text-anchor="middle" x="169" y="-625" font-family="Arial" font-size="10.00" fill="#ffffff">3×</text>
</g>
<!-- pthread_create@@GLIBC_2.34&#45;&gt;create_thread -->
<g id="edge21" class="edge">
<title>pthread_create@@GLIBC_2.34&#45;&gt;create_thread</title>
<path fill="none" stroke="#99d007" stroke-width="2.73" d="M169.7,-720.92C169.6,-711.12 169.49,-700.14 169.39,-689.8"/>
<polygon fill="#99d007" stroke="#99d007" stroke-width="2.73" points="172.29,-689.59 169.31,-681.32 166.48,-689.65 172.29,-689.59"/>
<text text-anchor="middle" x="187" y="-704" font-family="Arial" font-size="10.00" fill="#99d007">68.19%</text>
<text text-anchor="middle" x="187" y="-693" font-family="Arial" font-size="10.00" fill="#99d007">3×</text>
</g>
<!-- __clone_internal -->
<g id="node13" class="node">
<title>__clone_internal</title>
<polygon fill="#99d007" stroke="#99d007" points="201.5,-578 114.5,-578 114.5,-515 201.5,-515 201.5,-578"/>
<text text-anchor="middle" x="158" y="-566" font-family="Arial" font-size="10.00" fill="#ffffff">libc.so.6</text>
<text text-anchor="middle" x="158" y="-555" font-family="Arial" font-size="10.00" fill="#ffffff">__clone_internal</text>
<text text-anchor="middle" x="158" y="-544" font-family="Arial" font-size="10.00" fill="#ffffff">68.19%</text>
<text text-anchor="middle" x="158" y="-533" font-family="Arial" font-size="10.00" fill="#ffffff">(0.00%)</text>
<text text-anchor="middle" x="158" y="-522" font-family="Arial" font-size="10.00" fill="#ffffff">3×</text>
</g>
<!-- clone -->
<g id="node14" class="node">
<title>clone</title>
<polygon fill="#99d007" stroke="#99d007" points="181.5,-475 128.5,-475 128.5,-412 181.5,-412 181.5,-475"/>
<text text-anchor="middle" x="155" y="-463" font-family="Arial" font-size="10.00" fill="#ffffff">libc.so.6</text>
<text text-anchor="middle" x="155" y="-452" font-family="Arial" font-size="10.00" fill="#ffffff">clone</text>
<text text-anchor="middle" x="155" y="-441" font-family="Arial" font-size="10.00" fill="#ffffff">68.19%</text>
<text text-anchor="middle" x="155" y="-430" font-family="Arial" font-size="10.00" fill="#ffffff">(0.00%)</text>
<text text-anchor="middle" x="155" y="-419" font-family="Arial" font-size="10.00" fill="#ffffff">3×</text>
</g>
<!-- __clone_internal&#45;&gt;clone -->
<g id="edge10" class="edge">
<title>__clone_internal&#45;&gt;clone</title>
<path fill="none" stroke="#99d007" stroke-width="2.73" d="M157.09,-514.92C156.8,-505.12 156.47,-494.14 156.17,-483.8"/>
<polygon fill="#99d007" stroke="#99d007" stroke-width="2.73" points="159.07,-483.53 155.92,-475.32 153.26,-483.7 159.07,-483.53"/>
<text text-anchor="middle" x="174" y="-498" font-family="Arial" font-size="10.00" fill="#99d007">68.19%</text>
<text text-anchor="middle" x="174" y="-487" font-family="Arial" font-size="10.00" fill="#99d007">3×</text>
</g>
<!-- start_thread -->
<g id="node18" class="node">
<title>start_thread</title>
<polygon fill="#99d007" stroke="#99d007" points="184,-372 116,-372 116,-309 184,-309 184,-372"/>
<text text-anchor="middle" x="150" y="-360" font-family="Arial" font-size="10.00" fill="#ffffff">libc.so.6</text>
<text text-anchor="middle" x="150" y="-349" font-family="Arial" font-size="10.00" fill="#ffffff">start_thread</text>
<text text-anchor="middle" x="150" y="-338" font-family="Arial" font-size="10.00" fill="#ffffff">68.19%</text>
<text text-anchor="middle" x="150" y="-327" font-family="Arial" font-size="10.00" fill="#ffffff">(0.00%)</text>
<text text-anchor="middle" x="150" y="-316" font-family="Arial" font-size="10.00" fill="#ffffff">3×</text>
</g>
<!-- clone&#45;&gt;start_thread -->
<g id="edge13" class="edge">
<title>clone&#45;&gt;start_thread</title>
<path fill="none" stroke="#99d007" stroke-width="2.73" d="M153.49,-411.92C153,-402.12 152.46,-391.14 151.95,-380.8"/>
<polygon fill="#99d007" stroke="#99d007" stroke-width="2.73" points="154.84,-380.47 151.53,-372.32 149.03,-380.76 154.84,-380.47"/>
<text text-anchor="middle" x="170" y="-395" font-family="Arial" font-size="10.00" fill="#99d007">68.19%</text>
<text text-anchor="middle" x="170" y="-384" font-family="Arial" font-size="10.00" fill="#99d007">3×</text>
</g>
<!-- blocked_multiply -->
<g id="node15" class="node">
<title>blocked_multiply</title>
<polygon fill="#f44702" stroke="#f44702" points="181.5,-1299 92.5,-1299 92.5,-1236 181.5,-1236 181.5,-1299"/>
<text text-anchor="middle" x="137" y="-1287" font-family="Arial" font-size="10.00" fill="#ffffff">TensorForth_cg</text>
<text text-anchor="middle" x="137" y="-1276" font-family="Arial" font-size="10.00" fill="#ffffff">blocked_multiply</text>
<text text-anchor="middle" x="137" y="-1265" font-family="Arial" font-size="10.00" fill="#ffffff">92.85%</text>
<text text-anchor="middle" x="137" y="-1254" font-family="Arial" font-size="10.00" fill="#ffffff">(0.00%)</text>
<text text-anchor="middle" x="137" y="-1243" font-family="Arial" font-size="10.00" fill="#ffffff">8×</text>
</g>
<!-- blocked_multiply&#45;&gt;0x000000000010a440 -->
<g id="edge11" class="edge">
<title>blocked_multiply&#45;&gt;0x000000000010a440</title>
<path fill="none" stroke="#f44702" stroke-width="3.71" d="M137,-1235.92C137,-1226.52 137,-1216.01 137,-1206.05"/>
<polygon fill="#f44702" stroke="#f44702" stroke-width="3.71" points="140.36,-1205.92 137,-1196.32 133.64,-1205.92 140.36,-1205.92"/>
<text text-anchor="middle" x="154" y="-1219" font-family="Arial" font-size="10.00" fill="#f44702">92.85%</text>
<text text-anchor="middle" x="154" y="-1208" font-family="Arial" font-size="10.00" fill="#f44702">8×</text>
</g>
<!-- c_dot -->
<g id="node17" class="node">
<title>c_dot</title>
<polygon fill="#0d1676" stroke="#0d1676" points="84,-1299 0,-1299 0,-1236 84,-1236 84,-1299"/>
<text text-anchor="middle" x="42" y="-1287" font-family="Arial" font-size="10.00" fill="#ffffff">TensorForth_cg</text>
<text text-anchor="middle" x="42" y="-1276" font-family="Arial" font-size="10.00" fill="#ffffff">c_dot</text>
<text text-anchor="middle" x="42" y="-1265" font-family="Arial" font-size="10.00" fill="#ffffff">2.27%</text>
<text text-anchor="middle" x="42" y="-1254" font-family="Arial" font-size="10.00" fill="#ffffff">(2.27%)</text>
<text text-anchor="middle" x="42" y="-1243" font-family="Arial" font-size="10.00" fill="#ffffff">3000000×</text>
</g>
<!-- start_thread&#45;&gt;0x0000000000022640 -->
<g id="edge25" class="edge">
<title>start_thread&#45;&gt;0x0000000000022640</title>
<path fill="none" stroke="#99d007" stroke-width="2.73" d="M149.7,-308.92C149.6,-299.12 149.49,-288.14 149.39,-277.8"/>
<polygon fill="#99d007" stroke="#99d007" stroke-width="2.73" points="152.29,-277.59 149.31,-269.32 146.48,-277.65 152.29,-277.59"/>
<text text-anchor="middle" x="167" y="-292" font-family="Arial" font-size="10.00" fill="#99d007">68.19%</text>
<text text-anchor="middle" x="167" y="-281" font-family="Arial" font-size="10.00" fill="#99d007">3×</text>
</g>
<!-- convoluzione -->
<g id="node19" class="node">
<title>convoluzione</title>
<polygon fill="#0d1776" stroke="#0d1776" points="85,-1402 1,-1402 1,-1339 85,-1339 85,-1402"/>
<text text-anchor="middle" x="43" y="-1390" font-family="Arial" font-size="10.00" fill="#ffffff">TensorForth_cg</text>
<text text-anchor="middle" x="43" y="-1379" font-family="Arial" font-size="10.00" fill="#ffffff">convoluzione</text>
<text text-anchor="middle" x="43" y="-1368" font-family="Arial" font-size="10.00" fill="#ffffff">2.43%</text>
<text text-anchor="middle" x="43" y="-1357" font-family="Arial" font-size="10.00" fill="#ffffff">(0.11%)</text>
<text text-anchor="middle" x="43" y="-1346" font-family="Arial" font-size="10.00" fill="#ffffff">3×</text>
</g>
<!-- convoluzione&#45;&gt;c_dot -->
<g id="edge14" class="edge">
<title>convoluzione&#45;&gt;c_dot</title>
<path fill="none" stroke="#0d1676" stroke-width="0.5" d="M42.7,-1338.92C42.58,-1327.56 42.46,-1314.59 42.34,-1302.9"/>
<polygon fill="#0d1676" stroke="#0d1676" stroke-width="0.5" points="43.56,-1302.81 42.31,-1299.32 41.11,-1302.83 43.56,-1302.81"/>
<text text-anchor="middle" x="64.5" y="-1322" font-family="Arial" font-size="10.00" fill="#0d1676">2.27%</text>
<text text-anchor="middle" x="64.5" y="-1311" font-family="Arial" font-size="10.00" fill="#0d1676">3000000×</text>
</g>
<!-- create_thread&#45;&gt;__clone_internal -->
<g id="edge15" class="edge">
<title>create_thread&#45;&gt;__clone_internal</title>
<path fill="none" stroke="#99d007" stroke-width="2.73" d="M165.67,-617.92C164.6,-608.12 163.41,-597.14 162.28,-586.8"/>
<polygon fill="#99d007" stroke="#99d007" stroke-width="2.73" points="165.14,-586.26 161.36,-578.32 159.37,-586.89 165.14,-586.26"/>
<text text-anchor="middle" x="182" y="-601" font-family="Arial" font-size="10.00" fill="#99d007">68.19%</text>
<text text-anchor="middle" x="182" y="-590" font-family="Arial" font-size="10.00" fill="#99d007">3×</text>
</g>
<!-- parser&#45;&gt;convoluzione -->
<g id="edge18" class="edge">
<title>parser&#45;&gt;convoluzione</title>
<path fill="none" stroke="#0d1776" stroke-width="0.5" d="M108.54,-1441.92C97.69,-1430.26 85.27,-1416.92 74.18,-1405"/>
<polygon fill="#0d1776" stroke="#0d1776" stroke-width="0.5" points="74.97,-1404.05 71.69,-1402.32 73.17,-1405.72 74.97,-1404.05"/>
<text text-anchor="middle" x="113" y="-1425" font-family="Arial" font-size="10.00" fill="#0d1776">2.43%</text>
<text text-anchor="middle" x="113" y="-1414" font-family="Arial" font-size="10.00" fill="#0d1776">3×</text>
</g>
<!-- mat_mat_mul -->
<g id="node22" class="node">
<title>mat_mat_mul</title>
<polygon fill="#f44502" stroke="#f44502" points="179,-1402 95,-1402 95,-1339 179,-1339 179,-1402"/>
<text text-anchor="middle" x="137" y="-1390" font-family="Arial" font-size="10.00" fill="#ffffff">TensorForth_cg</text>
<text text-anchor="middle" x="137" y="-1379" font-family="Arial" font-size="10.00" fill="#ffffff">mat_mat_mul</text>
<text text-anchor="middle" x="137" y="-1368" font-family="Arial" font-size="10.00" fill="#ffffff">93.02%</text>
<text text-anchor="middle" x="137" y="-1357" font-family="Arial" font-size="10.00" fill="#ffffff">(0.00%)</text>
<text text-anchor="middle" x="137" y="-1346" font-family="Arial" font-size="10.00" fill="#ffffff">8×</text>
</g>
<!-- parser&#45;&gt;mat_mat_mul -->
<g id="edge19" class="edge">
<title>parser&#45;&gt;mat_mat_mul</title>
<path fill="none" stroke="#f44502" stroke-width="3.72" d="M137,-1441.92C137,-1432.52 137,-1422.01 137,-1412.05"/>
<polygon fill="#f44502" stroke="#f44502" stroke-width="3.72" points="140.36,-1411.92 137,-1402.32 133.64,-1411.92 140.36,-1411.92"/>
<text text-anchor="middle" x="154" y="-1425" font-family="Arial" font-size="10.00" fill="#f44502">93.02%</text>
<text text-anchor="middle" x="154" y="-1414" font-family="Arial" font-size="10.00" fill="#f44502">8×</text>
</g>
<!-- random_array -->
<g id="node23" class="node">
<title>random_array</title>
<polygon fill="#0d2078" stroke="#0d2078" points="280,-1402 196,-1402 196,-1339 280,-1339 280,-1402"/>
<text text-anchor="middle" x="238" y="-1390" font-family="Arial" font-size="10.00" fill="#ffffff">TensorForth_cg</text>
<text text-anchor="middle" x="238" y="-1379" font-family="Arial" font-size="10.00" fill="#ffffff">random_array</text>
<text text-anchor="middle" x="238" y="-1368" font-family="Arial" font-size="10.00" fill="#ffffff">4.46%</text>
<text text-anchor="middle" x="238" y="-1357" font-family="Arial" font-size="10.00" fill="#ffffff">(0.53%)</text>
<text text-anchor="middle" x="238" y="-1346" font-family="Arial" font-size="10.00" fill="#ffffff">27×</text>
</g>
<!-- parser&#45;&gt;random_array -->
<g id="edge20" class="edge">
<title>parser&#45;&gt;random_array</title>
<path fill="none" stroke="#0d2078" stroke-width="0.5" d="M167.58,-1441.92C179.24,-1430.26 192.58,-1416.92 204.5,-1405"/>
<polygon fill="#0d2078" stroke="#0d2078" stroke-width="0.5" points="205.57,-1405.66 207.18,-1402.32 203.84,-1403.93 205.57,-1405.66"/>
<text text-anchor="middle" x="211" y="-1425" font-family="Arial" font-size="10.00" fill="#0d2078">4.46%</text>
<text text-anchor="middle" x="211" y="-1414" font-family="Arial" font-size="10.00" fill="#0d2078">27×</text>
</g>
<!-- mat_mat_mul&#45;&gt;blocked_multiply -->
<g id="edge17" class="edge">
<title>mat_mat_mul&#45;&gt;blocked_multiply</title>
<path fill="none" stroke="#f44702" stroke-width="3.71" d="M137,-1338.92C137,-1329.52 137,-1319.01 137,-1309.05"/>
<polygon fill="#f44702" stroke="#f44702" stroke-width="3.71" points="140.36,-1308.92 137,-1299.32 133.64,-1308.92 140.36,-1308.92"/>
<text text-anchor="middle" x="154" y="-1322" font-family="Arial" font-size="10.00" fill="#f44702">92.85%</text>
<text text-anchor="middle" x="154" y="-1311" font-family="Arial" font-size="10.00" fill="#f44702">8×</text>
</g>
<!-- random_array&#45;&gt;0x000000000010a460 -->
<g id="edge24" class="edge">
<title>random_array&#45;&gt;0x000000000010a460</title>
<path fill="none" stroke="#0d1e78" stroke-width="0.5" d="M240.42,-1338.92C241.32,-1327.56 242.35,-1314.59 243.27,-1302.9"/>
<polygon fill="#0d1e78" stroke="#0d1e78" stroke-width="0.5" points="244.5,-1302.91 243.56,-1299.32 242.06,-1302.71 244.5,-1302.91"/>
<text text-anchor="middle" x="267.5" y="-1322" font-family="Arial" font-size="10.00" fill="#0d1e78">3.93%</text>
<text text-anchor="middle" x="267.5" y="-1311" font-family="Arial" font-size="10.00" fill="#0d1e78">18240083×</text>
</g>
<!-- random_r -->
<g id="node25" class="node">
<title>random_r</title>
<polygon fill="#0d1575" stroke="#0d1575" points="278.5,-990 213.5,-990 213.5,-927 278.5,-927 278.5,-990"/>
<text text-anchor="middle" x="246" y="-978" font-family="Arial" font-size="10.00" fill="#ffffff">libc.so.6</text>
<text text-anchor="middle" x="246" y="-967" font-family="Arial" font-size="10.00" fill="#ffffff">random_r</text>
<text text-anchor="middle" x="246" y="-956" font-family="Arial" font-size="10.00" fill="#ffffff">1.86%</text>
<text text-anchor="middle" x="246" y="-945" font-family="Arial" font-size="10.00" fill="#ffffff">(1.86%)</text>
<text text-anchor="middle" x="246" y="-934" font-family="Arial" font-size="10.00" fill="#ffffff">18240083×</text>
</g>
<!-- random&#45;&gt;random_r -->
<g id="edge23" class="edge">
<title>random&#45;&gt;random_r</title>
<path fill="none" stroke="#0d1575" stroke-width="0.5" d="M246,-1029.92C246,-1018.56 246,-1005.59 246,-993.9"/>
<polygon fill="#0d1575" stroke="#0d1575" stroke-width="0.5" points="247.23,-993.82 246,-990.32 244.78,-993.82 247.23,-993.82"/>
<text text-anchor="middle" x="270.5" y="-1013" font-family="Arial" font-size="10.00" fill="#0d1575">1.86%</text>
<text text-anchor="middle" x="270.5" y="-1002" font-family="Arial" font-size="10.00" fill="#0d1575">18240083×</text>
</g>
</g>
</svg>
