<?xml version="1.0" encoding="UTF-8" standalone="no"?>
<!DOCTYPE svg PUBLIC "-//W3C//DTD SVG 1.1//EN"
 "http://www.w3.org/Graphics/SVG/1.1/DTD/svg11.dtd">
<!-- Generated by graphviz version 2.43.0 (0)
 -->
<!-- Title: %3 Pages: 1 -->
<svg width="360pt" height="1863pt"
 viewBox="0.00 0.00 359.50 1863.00" xmlns="http://www.w3.org/2000/svg" xmlns:xlink="http://www.w3.org/1999/xlink">
<g id="graph0" class="graph" transform="scale(1 1) rotate(0) translate(4 1859)">
<title>%3</title>
<g id="a_graph0"><a xlink:title=" ">
<polygon fill="white" stroke="transparent" points="-4,4 -4,-1859 355.5,-1859 355.5,4 -4,4"/>
</a>
</g>
<!-- (below main) -->
<g id="node1" class="node">
<title>(below main)</title>
<polygon fill="#ff0000" stroke="#ff0000" points="229,-1752 145,-1752 145,-1689 229,-1689 229,-1752"/>
<text text-anchor="middle" x="187" y="-1740" font-family="Arial" font-size="10.00" fill="#ffffff">TensorForth_cg</text>
<text text-anchor="middle" x="187" y="-1729" font-family="Arial" font-size="10.00" fill="#ffffff">(below main)</text>
<text text-anchor="middle" x="187" y="-1718" font-family="Arial" font-size="10.00" fill="#ffffff">100.00%</text>
<text text-anchor="middle" x="187" y="-1707" font-family="Arial" font-size="10.00" fill="#ffffff">(0.00%)</text>
<text text-anchor="middle" x="187" y="-1696" font-family="Arial" font-size="10.00" fill="#ffffff">2×</text>
</g>
<!-- main -->
<g id="node2" class="node">
<title>main</title>
<polygon fill="#ff0000" stroke="#ff0000" points="229,-1649 145,-1649 145,-1586 229,-1586 229,-1649"/>
<text text-anchor="middle" x="187" y="-1637" font-family="Arial" font-size="10.00" fill="#ffffff">TensorForth_cg</text>
<text text-anchor="middle" x="187" y="-1626" font-family="Arial" font-size="10.00" fill="#ffffff">main</text>
<text text-anchor="middle" x="187" y="-1615" font-family="Arial" font-size="10.00" fill="#ffffff">100.00%</text>
<text text-anchor="middle" x="187" y="-1604" font-family="Arial" font-size="10.00" fill="#ffffff">(0.00%)</text>
<text text-anchor="middle" x="187" y="-1593" font-family="Arial" font-size="10.00" fill="#ffffff">1×</text>
</g>
<!-- (below main)&#45;&gt;main -->
<g id="edge1" class="edge">
<title>(below main)&#45;&gt;main</title>
<path fill="none" stroke="#ff0000" stroke-width="4" d="M187,-1688.92C187,-1679.61 187,-1669.23 187,-1659.36"/>
<polygon fill="#ff0000" stroke="#ff0000" stroke-width="4" points="190.5,-1659.32 187,-1649.32 183.5,-1659.32 190.5,-1659.32"/>
<text text-anchor="middle" x="206.5" y="-1672" font-family="Arial" font-size="10.00" fill="#ff0000">100.00%</text>
<text text-anchor="middle" x="206.5" y="-1661" font-family="Arial" font-size="10.00" fill="#ff0000">1×</text>
</g>
<!-- parser -->
<g id="node22" class="node">
<title>parser</title>
<polygon fill="#ff0000" stroke="#ff0000" points="229,-1546 145,-1546 145,-1483 229,-1483 229,-1546"/>
<text text-anchor="middle" x="187" y="-1534" font-family="Arial" font-size="10.00" fill="#ffffff">TensorForth_cg</text>
<text text-anchor="middle" x="187" y="-1523" font-family="Arial" font-size="10.00" fill="#ffffff">parser</text>
<text text-anchor="middle" x="187" y="-1512" font-family="Arial" font-size="10.00" fill="#ffffff">100.00%</text>
<text text-anchor="middle" x="187" y="-1501" font-family="Arial" font-size="10.00" fill="#ffffff">(0.00%)</text>
<text text-anchor="middle" x="187" y="-1490" font-family="Arial" font-size="10.00" fill="#ffffff">1×</text>
</g>
<!-- main&#45;&gt;parser -->
<g id="edge19" class="edge">
<title>main&#45;&gt;parser</title>
<path fill="none" stroke="#ff0000" stroke-width="4" d="M187,-1585.92C187,-1576.61 187,-1566.23 187,-1556.36"/>
<polygon fill="#ff0000" stroke="#ff0000" stroke-width="4" points="190.5,-1556.32 187,-1546.32 183.5,-1556.32 190.5,-1556.32"/>
<text text-anchor="middle" x="206.5" y="-1569" font-family="Arial" font-size="10.00" fill="#ff0000">100.00%</text>
<text text-anchor="middle" x="206.5" y="-1558" font-family="Arial" font-size="10.00" fill="#ff0000">1×</text>
</g>
<!-- 0x000000000001f540 -->
<g id="node3" class="node">
<title>0x000000000001f540</title>
<polygon fill="#ff0000" stroke="#ff0000" points="241.5,-1855 132.5,-1855 132.5,-1792 241.5,-1792 241.5,-1855"/>
<text text-anchor="middle" x="187" y="-1843" font-family="Arial" font-size="10.00" fill="#ffffff">ld&#45;linux&#45;x86&#45;64.so.2</text>
<text text-anchor="middle" x="187" y="-1832" font-family="Arial" font-size="10.00" fill="#ffffff">0x000000000001f540</text>
<text text-anchor="middle" x="187" y="-1821" font-family="Arial" font-size="10.00" fill="#ffffff">100.00%</text>
<text text-anchor="middle" x="187" y="-1810" font-family="Arial" font-size="10.00" fill="#ffffff">(0.00%)</text>
<text text-anchor="middle" x="187" y="-1799" font-family="Arial" font-size="10.00" fill="#ffffff">0×</text>
</g>
<!-- 0x000000000001f540&#45;&gt;(below main) -->
<g id="edge2" class="edge">
<title>0x000000000001f540&#45;&gt;(below main)</title>
<path fill="none" stroke="#ff0000" stroke-width="4" d="M187,-1791.92C187,-1782.61 187,-1772.23 187,-1762.36"/>
<polygon fill="#ff0000" stroke="#ff0000" stroke-width="4" points="190.5,-1762.32 187,-1752.32 183.5,-1762.32 190.5,-1762.32"/>
<text text-anchor="middle" x="206.5" y="-1775" font-family="Arial" font-size="10.00" fill="#ff0000">100.00%</text>
<text text-anchor="middle" x="206.5" y="-1764" font-family="Arial" font-size="10.00" fill="#ff0000">1×</text>
</g>
<!-- 0x0000000000022640 -->
<g id="node4" class="node">
<title>0x0000000000022640</title>
<polygon fill="#7bcb07" stroke="#7bcb07" points="186.5,-269 75.5,-269 75.5,-206 186.5,-206 186.5,-269"/>
<text text-anchor="middle" x="131" y="-257" font-family="Arial" font-size="10.00" fill="#ffffff">libgomp.so.1.0.0</text>
<text text-anchor="middle" x="131" y="-246" font-family="Arial" font-size="10.00" fill="#ffffff">0x0000000000022640</text>
<text text-anchor="middle" x="131" y="-235" font-family="Arial" font-size="10.00" fill="#ffffff">64.80%</text>
<text text-anchor="middle" x="131" y="-224" font-family="Arial" font-size="10.00" fill="#ffffff">(0.00%)</text>
<text text-anchor="middle" x="131" y="-213" font-family="Arial" font-size="10.00" fill="#ffffff">3×</text>
</g>
<!-- blocked_multiply._omp_fn.0 -->
<g id="node5" class="node">
<title>blocked_multiply._omp_fn.0</title>
<polygon fill="#e89004" stroke="#e89004" points="279.5,-166 142.5,-166 142.5,-103 279.5,-103 279.5,-166"/>
<text text-anchor="middle" x="211" y="-154" font-family="Arial" font-size="10.00" fill="#ffffff">TensorForth_cg</text>
<text text-anchor="middle" x="211" y="-143" font-family="Arial" font-size="10.00" fill="#ffffff">blocked_multiply._omp_fn.0</text>
<text text-anchor="middle" x="211" y="-132" font-family="Arial" font-size="10.00" fill="#ffffff">84.65%</text>
<text text-anchor="middle" x="211" y="-121" font-family="Arial" font-size="10.00" fill="#ffffff">(0.00%)</text>
<text text-anchor="middle" x="211" y="-110" font-family="Arial" font-size="10.00" fill="#ffffff">16×</text>
</g>
<!-- 0x0000000000022640&#45;&gt;blocked_multiply._omp_fn.0 -->
<g id="edge3" class="edge">
<title>0x0000000000022640&#45;&gt;blocked_multiply._omp_fn.0</title>
<path fill="none" stroke="#6cc808" stroke-width="2.52" d="M155.22,-205.92C163.52,-195.44 172.91,-183.59 181.58,-172.65"/>
<polygon fill="#6cc808" stroke="#6cc808" stroke-width="2.52" points="183.85,-174.23 186.59,-166.32 179.51,-170.8 183.85,-174.23"/>
<text text-anchor="middle" x="196" y="-189" font-family="Arial" font-size="10.00" fill="#6cc808">62.98%</text>
<text text-anchor="middle" x="196" y="-178" font-family="Arial" font-size="10.00" fill="#6cc808">12×</text>
</g>
<!-- convoluzione._omp_fn.0 -->
<g id="node6" class="node">
<title>convoluzione._omp_fn.0</title>
<polygon fill="#0d1776" stroke="#0d1776" points="122,-166 0,-166 0,-103 122,-103 122,-166"/>
<text text-anchor="middle" x="61" y="-154" font-family="Arial" font-size="10.00" fill="#ffffff">TensorForth_cg</text>
<text text-anchor="middle" x="61" y="-143" font-family="Arial" font-size="10.00" fill="#ffffff">convoluzione._omp_fn.0</text>
<text text-anchor="middle" x="61" y="-132" font-family="Arial" font-size="10.00" fill="#ffffff">2.36%</text>
<text text-anchor="middle" x="61" y="-121" font-family="Arial" font-size="10.00" fill="#ffffff">(0.25%)</text>
<text text-anchor="middle" x="61" y="-110" font-family="Arial" font-size="10.00" fill="#ffffff">12×</text>
</g>
<!-- 0x0000000000022640&#45;&gt;convoluzione._omp_fn.0 -->
<g id="edge4" class="edge">
<title>0x0000000000022640&#45;&gt;convoluzione._omp_fn.0</title>
<path fill="none" stroke="#0d1475" stroke-width="0.5" d="M109.81,-205.92C101.79,-194.36 92.63,-181.14 84.43,-169.3"/>
<polygon fill="#0d1475" stroke="#0d1475" stroke-width="0.5" points="85.36,-168.5 82.36,-166.32 83.35,-169.9 85.36,-168.5"/>
<text text-anchor="middle" x="117" y="-189" font-family="Arial" font-size="10.00" fill="#0d1475">1.77%</text>
<text text-anchor="middle" x="117" y="-178" font-family="Arial" font-size="10.00" fill="#0d1475">9×</text>
</g>
<!-- kernel -->
<g id="node17" class="node">
<title>kernel</title>
<polygon fill="#e89004" stroke="#e89004" points="253,-63 169,-63 169,0 253,0 253,-63"/>
<text text-anchor="middle" x="211" y="-51" font-family="Arial" font-size="10.00" fill="#ffffff">TensorForth_cg</text>
<text text-anchor="middle" x="211" y="-40" font-family="Arial" font-size="10.00" fill="#ffffff">kernel</text>
<text text-anchor="middle" x="211" y="-29" font-family="Arial" font-size="10.00" fill="#ffffff">84.65%</text>
<text text-anchor="middle" x="211" y="-18" font-family="Arial" font-size="10.00" fill="#ffffff">(84.65%)</text>
<text text-anchor="middle" x="211" y="-7" font-family="Arial" font-size="10.00" fill="#ffffff">16384×</text>
</g>
<!-- blocked_multiply._omp_fn.0&#45;&gt;kernel -->
<g id="edge14" class="edge">
<title>blocked_multiply._omp_fn.0&#45;&gt;kernel</title>
<path fill="none" stroke="#e89004" stroke-width="3.39" d="M211,-102.92C211,-93.42 211,-82.79 211,-72.74"/>
<polygon fill="#e89004" stroke="#e89004" stroke-width="3.39" points="214.22,-72.52 211,-63.32 207.78,-72.52 214.22,-72.52"/>
<text text-anchor="middle" x="228" y="-86" font-family="Arial" font-size="10.00" fill="#e89004">84.65%</text>
<text text-anchor="middle" x="228" y="-75" font-family="Arial" font-size="10.00" fill="#e89004">16384×</text>
</g>
<!-- c_dot -->
<g id="node18" class="node">
<title>c_dot</title>
<polygon fill="#0d1675" stroke="#0d1675" points="103,-63 19,-63 19,0 103,0 103,-63"/>
<text text-anchor="middle" x="61" y="-51" font-family="Arial" font-size="10.00" fill="#ffffff">TensorForth_cg</text>
<text text-anchor="middle" x="61" y="-40" font-family="Arial" font-size="10.00" fill="#ffffff">c_dot</text>
<text text-anchor="middle" x="61" y="-29" font-family="Arial" font-size="10.00" fill="#ffffff">2.11%</text>
<text text-anchor="middle" x="61" y="-18" font-family="Arial" font-size="10.00" fill="#ffffff">(2.11%)</text>
<text text-anchor="middle" x="61" y="-7" font-family="Arial" font-size="10.00" fill="#ffffff">3000000×</text>
</g>
<!-- convoluzione._omp_fn.0&#45;&gt;c_dot -->
<g id="edge17" class="edge">
<title>convoluzione._omp_fn.0&#45;&gt;c_dot</title>
<path fill="none" stroke="#0d1675" stroke-width="0.5" d="M61,-102.92C61,-91.56 61,-78.59 61,-66.9"/>
<polygon fill="#0d1675" stroke="#0d1675" stroke-width="0.5" points="62.23,-66.82 61,-63.32 59.78,-66.82 62.23,-66.82"/>
<text text-anchor="middle" x="82.5" y="-86" font-family="Arial" font-size="10.00" fill="#0d1675">2.11%</text>
<text text-anchor="middle" x="82.5" y="-75" font-family="Arial" font-size="10.00" fill="#0d1675">3000000×</text>
</g>
<!-- 0x00000000000229f0 -->
<g id="node7" class="node">
<title>0x00000000000229f0</title>
<polygon fill="#7bcb07" stroke="#7bcb07" points="185.5,-990 76.5,-990 76.5,-927 185.5,-927 185.5,-990"/>
<text text-anchor="middle" x="131" y="-978" font-family="Arial" font-size="10.00" fill="#ffffff">libgomp.so.1.0.0</text>
<text text-anchor="middle" x="131" y="-967" font-family="Arial" font-size="10.00" fill="#ffffff">0x00000000000229f0</text>
<text text-anchor="middle" x="131" y="-956" font-family="Arial" font-size="10.00" fill="#ffffff">64.80%</text>
<text text-anchor="middle" x="131" y="-945" font-family="Arial" font-size="10.00" fill="#ffffff">(0.00%)</text>
<text text-anchor="middle" x="131" y="-934" font-family="Arial" font-size="10.00" fill="#ffffff">7×</text>
</g>
<!-- 0x0000000004855c70 -->
<g id="node8" class="node">
<title>0x0000000004855c70</title>
<polygon fill="#7bcb07" stroke="#7bcb07" points="186.5,-887 75.5,-887 75.5,-824 186.5,-824 186.5,-887"/>
<text text-anchor="middle" x="131" y="-875" font-family="Arial" font-size="10.00" fill="#ffffff">???</text>
<text text-anchor="middle" x="131" y="-864" font-family="Arial" font-size="10.00" fill="#ffffff">0x0000000004855c70</text>
<text text-anchor="middle" x="131" y="-853" font-family="Arial" font-size="10.00" fill="#ffffff">64.80%</text>
<text text-anchor="middle" x="131" y="-842" font-family="Arial" font-size="10.00" fill="#ffffff">(0.00%)</text>
<text text-anchor="middle" x="131" y="-831" font-family="Arial" font-size="10.00" fill="#ffffff">3×</text>
</g>
<!-- 0x00000000000229f0&#45;&gt;0x0000000004855c70 -->
<g id="edge5" class="edge">
<title>0x00000000000229f0&#45;&gt;0x0000000004855c70</title>
<path fill="none" stroke="#7bcb07" stroke-width="2.59" d="M131,-926.92C131,-917.03 131,-905.92 131,-895.49"/>
<polygon fill="#7bcb07" stroke="#7bcb07" stroke-width="2.59" points="133.8,-895.32 131,-887.32 128.2,-895.32 133.8,-895.32"/>
<text text-anchor="middle" x="148" y="-910" font-family="Arial" font-size="10.00" fill="#7bcb07">64.80%</text>
<text text-anchor="middle" x="148" y="-899" font-family="Arial" font-size="10.00" fill="#7bcb07">3×</text>
</g>
<!-- pthread_create@@GLIBC_2.34 -->
<g id="node13" class="node">
<title>pthread_create@@GLIBC_2.34</title>
<polygon fill="#7bcb07" stroke="#7bcb07" points="209,-784 53,-784 53,-721 209,-721 209,-784"/>
<text text-anchor="middle" x="131" y="-772" font-family="Arial" font-size="10.00" fill="#ffffff">libc.so.6</text>
<text text-anchor="middle" x="131" y="-761" font-family="Arial" font-size="10.00" fill="#ffffff">pthread_create@@GLIBC_2.34</text>
<text text-anchor="middle" x="131" y="-750" font-family="Arial" font-size="10.00" fill="#ffffff">64.80%</text>
<text text-anchor="middle" x="131" y="-739" font-family="Arial" font-size="10.00" fill="#ffffff">(0.00%)</text>
<text text-anchor="middle" x="131" y="-728" font-family="Arial" font-size="10.00" fill="#ffffff">3×</text>
</g>
<!-- 0x0000000004855c70&#45;&gt;pthread_create@@GLIBC_2.34 -->
<g id="edge8" class="edge">
<title>0x0000000004855c70&#45;&gt;pthread_create@@GLIBC_2.34</title>
<path fill="none" stroke="#7bcb07" stroke-width="2.59" d="M131,-823.92C131,-814.03 131,-802.92 131,-792.49"/>
<polygon fill="#7bcb07" stroke="#7bcb07" stroke-width="2.59" points="133.8,-792.32 131,-784.32 128.2,-792.32 133.8,-792.32"/>
<text text-anchor="middle" x="148" y="-807" font-family="Arial" font-size="10.00" fill="#7bcb07">64.80%</text>
<text text-anchor="middle" x="148" y="-796" font-family="Arial" font-size="10.00" fill="#7bcb07">3×</text>
</g>
<!-- 0x000000000010a440 -->
<g id="node9" class="node">
<title>0x000000000010a440</title>
<polygon fill="#eb7b03" stroke="#eb7b03" points="186.5,-1196 75.5,-1196 75.5,-1133 186.5,-1133 186.5,-1196"/>
<text text-anchor="middle" x="131" y="-1184" font-family="Arial" font-size="10.00" fill="#ffffff">???</text>
<text text-anchor="middle" x="131" y="-1173" font-family="Arial" font-size="10.00" fill="#ffffff">0x000000000010a440</text>
<text text-anchor="middle" x="131" y="-1162" font-family="Arial" font-size="10.00" fill="#ffffff">87.06%</text>
<text text-anchor="middle" x="131" y="-1151" font-family="Arial" font-size="10.00" fill="#ffffff">(0.00%)</text>
<text text-anchor="middle" x="131" y="-1140" font-family="Arial" font-size="10.00" fill="#ffffff">7×</text>
</g>
<!-- GOMP_parallel -->
<g id="node10" class="node">
<title>GOMP_parallel</title>
<polygon fill="#eb7b03" stroke="#eb7b03" points="175.5,-1093 86.5,-1093 86.5,-1030 175.5,-1030 175.5,-1093"/>
<text text-anchor="middle" x="131" y="-1081" font-family="Arial" font-size="10.00" fill="#ffffff">libgomp.so.1.0.0</text>
<text text-anchor="middle" x="131" y="-1070" font-family="Arial" font-size="10.00" fill="#ffffff">GOMP_parallel</text>
<text text-anchor="middle" x="131" y="-1059" font-family="Arial" font-size="10.00" fill="#ffffff">87.06%</text>
<text text-anchor="middle" x="131" y="-1048" font-family="Arial" font-size="10.00" fill="#ffffff">(0.00%)</text>
<text text-anchor="middle" x="131" y="-1037" font-family="Arial" font-size="10.00" fill="#ffffff">7×</text>
</g>
<!-- 0x000000000010a440&#45;&gt;GOMP_parallel -->
<g id="edge6" class="edge">
<title>0x000000000010a440&#45;&gt;GOMP_parallel</title>
<path fill="none" stroke="#eb7b03" stroke-width="3.48" d="M131,-1132.92C131,-1123.42 131,-1112.79 131,-1102.74"/>
<polygon fill="#eb7b03" stroke="#eb7b03" stroke-width="3.48" points="134.26,-1102.62 131,-1093.32 127.75,-1102.62 134.26,-1102.62"/>
<text text-anchor="middle" x="148" y="-1116" font-family="Arial" font-size="10.00" fill="#eb7b03">87.06%</text>
<text text-anchor="middle" x="148" y="-1105" font-family="Arial" font-size="10.00" fill="#eb7b03">7×</text>
</g>
<!-- GOMP_parallel&#45;&gt;blocked_multiply._omp_fn.0 -->
<g id="edge10" class="edge">
<title>GOMP_parallel&#45;&gt;blocked_multiply._omp_fn.0</title>
<path fill="none" stroke="#0c7e8f" stroke-width="0.87" d="M175.65,-1033.8C199.09,-1016.09 223,-990.45 223,-959.5 223,-959.5 223,-959.5 223,-236.5 223,-214.69 220.21,-190.41 217.31,-171.12"/>
<polygon fill="#0c7e8f" stroke="#0c7e8f" stroke-width="0.87" points="218.92,-170.73 216.58,-166.33 215.67,-171.23 218.92,-170.73"/>
<text text-anchor="middle" x="240" y="-601" font-family="Arial" font-size="10.00" fill="#0c7e8f">21.67%</text>
<text text-anchor="middle" x="240" y="-590" font-family="Arial" font-size="10.00" fill="#0c7e8f">4×</text>
</g>
<!-- GOMP_parallel&#45;&gt;convoluzione._omp_fn.0 -->
<g id="edge11" class="edge">
<title>GOMP_parallel&#45;&gt;convoluzione._omp_fn.0</title>
<path fill="none" stroke="#0d0f74" stroke-width="0.5" d="M86.35,-1033.8C62.91,-1016.09 39,-990.45 39,-959.5 39,-959.5 39,-959.5 39,-236.5 39,-213.96 44.3,-189.22 49.69,-169.86"/>
<polygon fill="#0d0f74" stroke="#0d0f74" stroke-width="0.5" points="50.99,-169.77 50.77,-166.07 48.64,-169.1 50.99,-169.77"/>
<text text-anchor="middle" x="53" y="-601" font-family="Arial" font-size="10.00" fill="#0d0f74">0.59%</text>
<text text-anchor="middle" x="53" y="-590" font-family="Arial" font-size="10.00" fill="#0d0f74">3×</text>
</g>
<!-- GOMP_parallel&#45;&gt;0x00000000000229f0 -->
<g id="edge9" class="edge">
<title>GOMP_parallel&#45;&gt;0x00000000000229f0</title>
<path fill="none" stroke="#7bcb07" stroke-width="2.59" d="M131,-1029.92C131,-1020.03 131,-1008.92 131,-998.49"/>
<polygon fill="#7bcb07" stroke="#7bcb07" stroke-width="2.59" points="133.8,-998.32 131,-990.32 128.2,-998.32 133.8,-998.32"/>
<text text-anchor="middle" x="148" y="-1013" font-family="Arial" font-size="10.00" fill="#7bcb07">64.80%</text>
<text text-anchor="middle" x="148" y="-1002" font-family="Arial" font-size="10.00" fill="#7bcb07">7×</text>
</g>
<!-- 0x000000000010a460 -->
<g id="node11" class="node">
<title>0x000000000010a460</title>
<polygon fill="#0d3c80" stroke="#0d3c80" points="351.5,-1299 240.5,-1299 240.5,-1236 351.5,-1236 351.5,-1299"/>
<text text-anchor="middle" x="296" y="-1287" font-family="Arial" font-size="10.00" fill="#ffffff">???</text>
<text text-anchor="middle" x="296" y="-1276" font-family="Arial" font-size="10.00" fill="#ffffff">0x000000000010a460</text>
<text text-anchor="middle" x="296" y="-1265" font-family="Arial" font-size="10.00" fill="#ffffff">10.27%</text>
<text text-anchor="middle" x="296" y="-1254" font-family="Arial" font-size="10.00" fill="#ffffff">(0.35%)</text>
<text text-anchor="middle" x="296" y="-1243" font-family="Arial" font-size="10.00" fill="#ffffff">51002083×</text>
</g>
<!-- rand -->
<g id="node12" class="node">
<title>rand</title>
<polygon fill="#0d3a80" stroke="#0d3a80" points="328.5,-1196 263.5,-1196 263.5,-1133 328.5,-1133 328.5,-1196"/>
<text text-anchor="middle" x="296" y="-1184" font-family="Arial" font-size="10.00" fill="#ffffff">libc.so.6</text>
<text text-anchor="middle" x="296" y="-1173" font-family="Arial" font-size="10.00" fill="#ffffff">rand</text>
<text text-anchor="middle" x="296" y="-1162" font-family="Arial" font-size="10.00" fill="#ffffff">9.92%</text>
<text text-anchor="middle" x="296" y="-1151" font-family="Arial" font-size="10.00" fill="#ffffff">(1.04%)</text>
<text text-anchor="middle" x="296" y="-1140" font-family="Arial" font-size="10.00" fill="#ffffff">51002083×</text>
</g>
<!-- 0x000000000010a460&#45;&gt;rand -->
<g id="edge7" class="edge">
<title>0x000000000010a460&#45;&gt;rand</title>
<path fill="none" stroke="#0d3a80" stroke-width="0.5" d="M296,-1235.92C296,-1224.56 296,-1211.59 296,-1199.9"/>
<polygon fill="#0d3a80" stroke="#0d3a80" stroke-width="0.5" points="297.23,-1199.82 296,-1196.32 294.78,-1199.82 297.23,-1199.82"/>
<text text-anchor="middle" x="320.5" y="-1219" font-family="Arial" font-size="10.00" fill="#0d3a80">9.92%</text>
<text text-anchor="middle" x="320.5" y="-1208" font-family="Arial" font-size="10.00" fill="#0d3a80">51002083×</text>
</g>
<!-- random -->
<g id="node25" class="node">
<title>random</title>
<polygon fill="#0d357e" stroke="#0d357e" points="328.5,-1093 263.5,-1093 263.5,-1030 328.5,-1030 328.5,-1093"/>
<text text-anchor="middle" x="296" y="-1081" font-family="Arial" font-size="10.00" fill="#ffffff">libc.so.6</text>
<text text-anchor="middle" x="296" y="-1070" font-family="Arial" font-size="10.00" fill="#ffffff">random</text>
<text text-anchor="middle" x="296" y="-1059" font-family="Arial" font-size="10.00" fill="#ffffff">8.88%</text>
<text text-anchor="middle" x="296" y="-1048" font-family="Arial" font-size="10.00" fill="#ffffff">(4.01%)</text>
<text text-anchor="middle" x="296" y="-1037" font-family="Arial" font-size="10.00" fill="#ffffff">51002083×</text>
</g>
<!-- rand&#45;&gt;random -->
<g id="edge25" class="edge">
<title>rand&#45;&gt;random</title>
<path fill="none" stroke="#0d357e" stroke-width="0.5" d="M296,-1132.92C296,-1121.56 296,-1108.59 296,-1096.9"/>
<polygon fill="#0d357e" stroke="#0d357e" stroke-width="0.5" points="297.23,-1096.82 296,-1093.32 294.78,-1096.82 297.23,-1096.82"/>
<text text-anchor="middle" x="320.5" y="-1116" font-family="Arial" font-size="10.00" fill="#0d357e">8.88%</text>
<text text-anchor="middle" x="320.5" y="-1105" font-family="Arial" font-size="10.00" fill="#0d357e">51002083×</text>
</g>
<!-- create_thread -->
<g id="node21" class="node">
<title>create_thread</title>
<polygon fill="#7bcb07" stroke="#7bcb07" points="169,-681 93,-681 93,-618 169,-618 169,-681"/>
<text text-anchor="middle" x="131" y="-669" font-family="Arial" font-size="10.00" fill="#ffffff">libc.so.6</text>
<text text-anchor="middle" x="131" y="-658" font-family="Arial" font-size="10.00" fill="#ffffff">create_thread</text>
<text text-anchor="middle" x="131" y="-647" font-family="Arial" font-size="10.00" fill="#ffffff">64.80%</text>
<text text-anchor="middle" x="131" y="-636" font-family="Arial" font-size="10.00" fill="#ffffff">(0.00%)</text>
<text text-anchor="middle" x="131" y="-625" font-family="Arial" font-size="10.00" fill="#ffffff">3×</text>
</g>
<!-- pthread_create@@GLIBC_2.34&#45;&gt;create_thread -->
<g id="edge24" class="edge">
<title>pthread_create@@GLIBC_2.34&#45;&gt;create_thread</title>
<path fill="none" stroke="#7bcb07" stroke-width="2.59" d="M131,-720.92C131,-711.03 131,-699.92 131,-689.49"/>
<polygon fill="#7bcb07" stroke="#7bcb07" stroke-width="2.59" points="133.8,-689.32 131,-681.32 128.2,-689.32 133.8,-689.32"/>
<text text-anchor="middle" x="148" y="-704" font-family="Arial" font-size="10.00" fill="#7bcb07">64.80%</text>
<text text-anchor="middle" x="148" y="-693" font-family="Arial" font-size="10.00" fill="#7bcb07">3×</text>
</g>
<!-- __clone_internal -->
<g id="node14" class="node">
<title>__clone_internal</title>
<polygon fill="#7bcb07" stroke="#7bcb07" points="174.5,-578 87.5,-578 87.5,-515 174.5,-515 174.5,-578"/>
<text text-anchor="middle" x="131" y="-566" font-family="Arial" font-size="10.00" fill="#ffffff">libc.so.6</text>
<text text-anchor="middle" x="131" y="-555" font-family="Arial" font-size="10.00" fill="#ffffff">__clone_internal</text>
<text text-anchor="middle" x="131" y="-544" font-family="Arial" font-size="10.00" fill="#ffffff">64.80%</text>
<text text-anchor="middle" x="131" y="-533" font-family="Arial" font-size="10.00" fill="#ffffff">(0.00%)</text>
<text text-anchor="middle" x="131" y="-522" font-family="Arial" font-size="10.00" fill="#ffffff">3×</text>
</g>
<!-- clone -->
<g id="node15" class="node">
<title>clone</title>
<polygon fill="#7bcb07" stroke="#7bcb07" points="157.5,-475 104.5,-475 104.5,-412 157.5,-412 157.5,-475"/>
<text text-anchor="middle" x="131" y="-463" font-family="Arial" font-size="10.00" fill="#ffffff">libc.so.6</text>
<text text-anchor="middle" x="131" y="-452" font-family="Arial" font-size="10.00" fill="#ffffff">clone</text>
<text text-anchor="middle" x="131" y="-441" font-family="Arial" font-size="10.00" fill="#ffffff">64.80%</text>
<text text-anchor="middle" x="131" y="-430" font-family="Arial" font-size="10.00" fill="#ffffff">(0.00%)</text>
<text text-anchor="middle" x="131" y="-419" font-family="Arial" font-size="10.00" fill="#ffffff">3×</text>
</g>
<!-- __clone_internal&#45;&gt;clone -->
<g id="edge12" class="edge">
<title>__clone_internal&#45;&gt;clone</title>
<path fill="none" stroke="#7bcb07" stroke-width="2.59" d="M131,-514.92C131,-505.03 131,-493.92 131,-483.49"/>
<polygon fill="#7bcb07" stroke="#7bcb07" stroke-width="2.59" points="133.8,-483.32 131,-475.32 128.2,-483.32 133.8,-483.32"/>
<text text-anchor="middle" x="148" y="-498" font-family="Arial" font-size="10.00" fill="#7bcb07">64.80%</text>
<text text-anchor="middle" x="148" y="-487" font-family="Arial" font-size="10.00" fill="#7bcb07">3×</text>
</g>
<!-- start_thread -->
<g id="node19" class="node">
<title>start_thread</title>
<polygon fill="#7bcb07" stroke="#7bcb07" points="165,-372 97,-372 97,-309 165,-309 165,-372"/>
<text text-anchor="middle" x="131" y="-360" font-family="Arial" font-size="10.00" fill="#ffffff">libc.so.6</text>
<text text-anchor="middle" x="131" y="-349" font-family="Arial" font-size="10.00" fill="#ffffff">start_thread</text>
<text text-anchor="middle" x="131" y="-338" font-family="Arial" font-size="10.00" fill="#ffffff">64.80%</text>
<text text-anchor="middle" x="131" y="-327" font-family="Arial" font-size="10.00" fill="#ffffff">(0.00%)</text>
<text text-anchor="middle" x="131" y="-316" font-family="Arial" font-size="10.00" fill="#ffffff">3×</text>
</g>
<!-- clone&#45;&gt;start_thread -->
<g id="edge15" class="edge">
<title>clone&#45;&gt;start_thread</title>
<path fill="none" stroke="#7bcb07" stroke-width="2.59" d="M131,-411.92C131,-402.03 131,-390.92 131,-380.49"/>
<polygon fill="#7bcb07" stroke="#7bcb07" stroke-width="2.59" points="133.8,-380.32 131,-372.32 128.2,-380.32 133.8,-380.32"/>
<text text-anchor="middle" x="148" y="-395" font-family="Arial" font-size="10.00" fill="#7bcb07">64.80%</text>
<text text-anchor="middle" x="148" y="-384" font-family="Arial" font-size="10.00" fill="#7bcb07">3×</text>
</g>
<!-- blocked_multiply -->
<g id="node16" class="node">
<title>blocked_multiply</title>
<polygon fill="#e88f04" stroke="#e88f04" points="231.5,-1299 142.5,-1299 142.5,-1236 231.5,-1236 231.5,-1299"/>
<text text-anchor="middle" x="187" y="-1287" font-family="Arial" font-size="10.00" fill="#ffffff">TensorForth_cg</text>
<text text-anchor="middle" x="187" y="-1276" font-family="Arial" font-size="10.00" fill="#ffffff">blocked_multiply</text>
<text text-anchor="middle" x="187" y="-1265" font-family="Arial" font-size="10.00" fill="#ffffff">84.76%</text>
<text text-anchor="middle" x="187" y="-1254" font-family="Arial" font-size="10.00" fill="#ffffff">(0.00%)</text>
<text text-anchor="middle" x="187" y="-1243" font-family="Arial" font-size="10.00" fill="#ffffff">4×</text>
</g>
<!-- blocked_multiply&#45;&gt;0x000000000010a440 -->
<g id="edge13" class="edge">
<title>blocked_multiply&#45;&gt;0x000000000010a440</title>
<path fill="none" stroke="#e88f04" stroke-width="3.39" d="M170.05,-1235.92C164.56,-1226.03 158.4,-1214.92 152.62,-1204.49"/>
<polygon fill="#e88f04" stroke="#e88f04" stroke-width="3.39" points="155.37,-1202.81 148.09,-1196.32 149.73,-1205.93 155.37,-1202.81"/>
<text text-anchor="middle" x="182" y="-1219" font-family="Arial" font-size="10.00" fill="#e88f04">84.76%</text>
<text text-anchor="middle" x="182" y="-1208" font-family="Arial" font-size="10.00" fill="#e88f04">4×</text>
</g>
<!-- start_thread&#45;&gt;0x0000000000022640 -->
<g id="edge28" class="edge">
<title>start_thread&#45;&gt;0x0000000000022640</title>
<path fill="none" stroke="#7bcb07" stroke-width="2.59" d="M131,-308.92C131,-299.03 131,-287.92 131,-277.49"/>
<polygon fill="#7bcb07" stroke="#7bcb07" stroke-width="2.59" points="133.8,-277.32 131,-269.32 128.2,-277.32 133.8,-277.32"/>
<text text-anchor="middle" x="148" y="-292" font-family="Arial" font-size="10.00" fill="#7bcb07">64.80%</text>
<text text-anchor="middle" x="148" y="-281" font-family="Arial" font-size="10.00" fill="#7bcb07">3×</text>
</g>
<!-- convoluzione -->
<g id="node20" class="node">
<title>convoluzione</title>
<polygon fill="#0d1776" stroke="#0d1776" points="153,-1371 69,-1371 69,-1308 153,-1308 153,-1371"/>
<text text-anchor="middle" x="111" y="-1359" font-family="Arial" font-size="10.00" fill="#ffffff">TensorForth_cg</text>
<text text-anchor="middle" x="111" y="-1348" font-family="Arial" font-size="10.00" fill="#ffffff">convoluzione</text>
<text text-anchor="middle" x="111" y="-1337" font-family="Arial" font-size="10.00" fill="#ffffff">2.35%</text>
<text text-anchor="middle" x="111" y="-1326" font-family="Arial" font-size="10.00" fill="#ffffff">(0.00%)</text>
<text text-anchor="middle" x="111" y="-1315" font-family="Arial" font-size="10.00" fill="#ffffff">3×</text>
</g>
<!-- convoluzione&#45;&gt;0x000000000010a440 -->
<g id="edge16" class="edge">
<title>convoluzione&#45;&gt;0x000000000010a440</title>
<path fill="none" stroke="#0d1676" stroke-width="0.5" d="M110.15,-1307.88C110.09,-1304.88 110.04,-1301.88 110,-1299 109.65,-1271 105.96,-1263.71 110,-1236 111.75,-1223.97 115.1,-1211.15 118.62,-1199.78"/>
<polygon fill="#0d1676" stroke="#0d1676" stroke-width="0.5" points="119.84,-1200.01 119.72,-1196.3 117.5,-1199.27 119.84,-1200.01"/>
<text text-anchor="middle" x="124" y="-1270.5" font-family="Arial" font-size="10.00" fill="#0d1676">2.31%</text>
<text text-anchor="middle" x="124" y="-1259.5" font-family="Arial" font-size="10.00" fill="#0d1676">3×</text>
</g>
<!-- create_thread&#45;&gt;__clone_internal -->
<g id="edge18" class="edge">
<title>create_thread&#45;&gt;__clone_internal</title>
<path fill="none" stroke="#7bcb07" stroke-width="2.59" d="M131,-617.92C131,-608.03 131,-596.92 131,-586.49"/>
<polygon fill="#7bcb07" stroke="#7bcb07" stroke-width="2.59" points="133.8,-586.32 131,-578.32 128.2,-586.32 133.8,-586.32"/>
<text text-anchor="middle" x="148" y="-601" font-family="Arial" font-size="10.00" fill="#7bcb07">64.80%</text>
<text text-anchor="middle" x="148" y="-590" font-family="Arial" font-size="10.00" fill="#7bcb07">3×</text>
</g>
<!-- parser&#45;&gt;convoluzione -->
<g id="edge21" class="edge">
<title>parser&#45;&gt;convoluzione</title>
<path fill="none" stroke="#0d1776" stroke-width="0.5" d="M162.97,-1482.76C160.9,-1479.84 158.87,-1476.89 157,-1474 148.45,-1460.82 145.95,-1457.54 140,-1443 130.92,-1420.84 123.61,-1394.86 118.6,-1374.61"/>
<polygon fill="#0d1776" stroke="#0d1776" stroke-width="0.5" points="119.77,-1374.26 117.75,-1371.15 117.39,-1374.85 119.77,-1374.26"/>
<text text-anchor="middle" x="171" y="-1466" font-family="Arial" font-size="10.00" fill="#0d1776">2.35%</text>
<text text-anchor="middle" x="171" y="-1455" font-family="Arial" font-size="10.00" fill="#0d1776">3×</text>
</g>
<!-- mat_mat_mul -->
<g id="node23" class="node">
<title>mat_mat_mul</title>
<polygon fill="#e88e04" stroke="#e88e04" points="229,-1443 145,-1443 145,-1380 229,-1380 229,-1443"/>
<text text-anchor="middle" x="187" y="-1431" font-family="Arial" font-size="10.00" fill="#ffffff">TensorForth_cg</text>
<text text-anchor="middle" x="187" y="-1420" font-family="Arial" font-size="10.00" fill="#ffffff">mat_mat_mul</text>
<text text-anchor="middle" x="187" y="-1409" font-family="Arial" font-size="10.00" fill="#ffffff">84.88%</text>
<text text-anchor="middle" x="187" y="-1398" font-family="Arial" font-size="10.00" fill="#ffffff">(0.00%)</text>
<text text-anchor="middle" x="187" y="-1387" font-family="Arial" font-size="10.00" fill="#ffffff">4×</text>
</g>
<!-- parser&#45;&gt;mat_mat_mul -->
<g id="edge22" class="edge">
<title>parser&#45;&gt;mat_mat_mul</title>
<path fill="none" stroke="#e88e04" stroke-width="3.4" d="M187,-1482.92C187,-1473.42 187,-1462.79 187,-1452.74"/>
<polygon fill="#e88e04" stroke="#e88e04" stroke-width="3.4" points="190.22,-1452.52 187,-1443.32 183.78,-1452.52 190.22,-1452.52"/>
<text text-anchor="middle" x="204" y="-1466" font-family="Arial" font-size="10.00" fill="#e88e04">84.88%</text>
<text text-anchor="middle" x="204" y="-1455" font-family="Arial" font-size="10.00" fill="#e88e04">4×</text>
</g>
<!-- random_array -->
<g id="node24" class="node">
<title>random_array</title>
<polygon fill="#0d4382" stroke="#0d4382" points="330,-1443 246,-1443 246,-1380 330,-1380 330,-1443"/>
<text text-anchor="middle" x="288" y="-1431" font-family="Arial" font-size="10.00" fill="#ffffff">TensorForth_cg</text>
<text text-anchor="middle" x="288" y="-1420" font-family="Arial" font-size="10.00" fill="#ffffff">random_array</text>
<text text-anchor="middle" x="288" y="-1409" font-family="Arial" font-size="10.00" fill="#ffffff">11.66%</text>
<text text-anchor="middle" x="288" y="-1398" font-family="Arial" font-size="10.00" fill="#ffffff">(1.39%)</text>
<text text-anchor="middle" x="288" y="-1387" font-family="Arial" font-size="10.00" fill="#ffffff">56×</text>
</g>
<!-- parser&#45;&gt;random_array -->
<g id="edge23" class="edge">
<title>parser&#45;&gt;random_array</title>
<path fill="none" stroke="#0d4382" stroke-width="0.5" d="M217.58,-1482.92C229.24,-1471.26 242.58,-1457.92 254.5,-1446"/>
<polygon fill="#0d4382" stroke="#0d4382" stroke-width="0.5" points="255.57,-1446.66 257.18,-1443.32 253.84,-1444.93 255.57,-1446.66"/>
<text text-anchor="middle" x="263.5" y="-1466" font-family="Arial" font-size="10.00" fill="#0d4382">11.66%</text>
<text text-anchor="middle" x="263.5" y="-1455" font-family="Arial" font-size="10.00" fill="#0d4382">56×</text>
</g>
<!-- mat_mat_mul&#45;&gt;blocked_multiply -->
<g id="edge20" class="edge">
<title>mat_mat_mul&#45;&gt;blocked_multiply</title>
<path fill="none" stroke="#e88f04" stroke-width="3.39" d="M187,-1379.69C187,-1358.85 187,-1331.12 187,-1308.57"/>
<polygon fill="#e88f04" stroke="#e88f04" stroke-width="3.39" points="190.22,-1308.45 187,-1299.25 183.78,-1308.45 190.22,-1308.45"/>
<text text-anchor="middle" x="204" y="-1342.5" font-family="Arial" font-size="10.00" fill="#e88f04">84.76%</text>
<text text-anchor="middle" x="204" y="-1331.5" font-family="Arial" font-size="10.00" fill="#e88f04">4×</text>
</g>
<!-- random_array&#45;&gt;0x000000000010a460 -->
<g id="edge27" class="edge">
<title>random_array&#45;&gt;0x000000000010a460</title>
<path fill="none" stroke="#0d3c80" stroke-width="0.5" d="M289.74,-1379.69C291.01,-1357.08 292.74,-1326.36 294.06,-1302.95"/>
<polygon fill="#0d3c80" stroke="#0d3c80" stroke-width="0.5" points="295.29,-1302.82 294.27,-1299.25 292.85,-1302.68 295.29,-1302.82"/>
<text text-anchor="middle" x="317.5" y="-1342.5" font-family="Arial" font-size="10.00" fill="#0d3c80">10.27%</text>
<text text-anchor="middle" x="317.5" y="-1331.5" font-family="Arial" font-size="10.00" fill="#0d3c80">51002083×</text>
</g>
<!-- random_r -->
<g id="node26" class="node">
<title>random_r</title>
<polygon fill="#0d2279" stroke="#0d2279" points="328.5,-990 263.5,-990 263.5,-927 328.5,-927 328.5,-990"/>
<text text-anchor="middle" x="296" y="-978" font-family="Arial" font-size="10.00" fill="#ffffff">libc.so.6</text>
<text text-anchor="middle" x="296" y="-967" font-family="Arial" font-size="10.00" fill="#ffffff">random_r</text>
<text text-anchor="middle" x="296" y="-956" font-family="Arial" font-size="10.00" fill="#ffffff">4.87%</text>
<text text-anchor="middle" x="296" y="-945" font-family="Arial" font-size="10.00" fill="#ffffff">(4.87%)</text>
<text text-anchor="middle" x="296" y="-934" font-family="Arial" font-size="10.00" fill="#ffffff">51002083×</text>
</g>
<!-- random&#45;&gt;random_r -->
<g id="edge26" class="edge">
<title>random&#45;&gt;random_r</title>
<path fill="none" stroke="#0d2279" stroke-width="0.5" d="M296,-1029.92C296,-1018.56 296,-1005.59 296,-993.9"/>
<polygon fill="#0d2279" stroke="#0d2279" stroke-width="0.5" points="297.23,-993.82 296,-990.32 294.78,-993.82 297.23,-993.82"/>
<text text-anchor="middle" x="320.5" y="-1013" font-family="Arial" font-size="10.00" fill="#0d2279">4.87%</text>
<text text-anchor="middle" x="320.5" y="-1002" font-family="Arial" font-size="10.00" fill="#0d2279">51002083×</text>
</g>
</g>
</svg>
