<?xml version="1.0" encoding="UTF-8" standalone="no"?>
<!DOCTYPE svg PUBLIC "-//W3C//DTD SVG 1.1//EN"
 "http://www.w3.org/Graphics/SVG/1.1/DTD/svg11.dtd">
<!-- Generated by graphviz version 2.43.0 (0)
 -->
<!-- Title: %3 Pages: 1 -->
<svg width="271pt" height="336pt"
 viewBox="0.00 0.00 271.00 336.00" xmlns="http://www.w3.org/2000/svg" xmlns:xlink="http://www.w3.org/1999/xlink">
<g id="graph0" class="graph" transform="scale(1 1) rotate(0) translate(4 332)">
<title>%3</title>
<g id="a_graph0"><a xlink:title=" ">
<polygon fill="white" stroke="transparent" points="-4,4 -4,-332 267,-332 267,4 -4,4"/>
</a>
</g>
<!-- 1 -->
<g id="node1" class="node">
<title>1</title>
<polygon fill="#fa2301" stroke="#fa2301" points="56,-328 0,-328 0,-276 56,-276 56,-328"/>
<text text-anchor="middle" x="28" y="-316" font-family="Arial" font-size="10.00" fill="#ffffff">kernel</text>
<text text-anchor="middle" x="28" y="-305" font-family="Arial" font-size="10.00" fill="#ffffff">96.59%</text>
<text text-anchor="middle" x="28" y="-294" font-family="Arial" font-size="10.00" fill="#ffffff">(96.59%)</text>
<text text-anchor="middle" x="28" y="-283" font-family="Arial" font-size="10.00" fill="#ffffff">17559×</text>
</g>
<!-- 1&#45;&gt;1 -->
<g id="edge1" class="edge">
<title>1&#45;&gt;1</title>
<path fill="none" stroke="#fa2301" stroke-width="3.86" d="M56.23,-310.15C61.39,-309.12 65,-306.4 65,-302 65,-301.04 64.83,-300.15 64.5,-299.35"/>
<polygon fill="#fa2301" stroke="#fa2301" stroke-width="3.86" points="66.29,-296.42 56.23,-293.85 62.49,-302.13 66.29,-296.42"/>
<text text-anchor="middle" x="81.5" y="-299.5" font-family="Arial" font-size="10.00" fill="#fa2301">17559×</text>
</g>
<!-- 2 -->
<g id="node2" class="node">
<title>2</title>
<polygon fill="#0d1876" stroke="#0d1876" points="166,-236 116,-236 116,-184 166,-184 166,-236"/>
<text text-anchor="middle" x="141" y="-224" font-family="Arial" font-size="10.00" fill="#ffffff">parser</text>
<text text-anchor="middle" x="141" y="-213" font-family="Arial" font-size="10.00" fill="#ffffff">2.73%</text>
<text text-anchor="middle" x="141" y="-202" font-family="Arial" font-size="10.00" fill="#ffffff">(0.00%)</text>
<text text-anchor="middle" x="141" y="-191" font-family="Arial" font-size="10.00" fill="#ffffff">1×</text>
</g>
<!-- 4 -->
<g id="node3" class="node">
<title>4</title>
<polygon fill="#0d1174" stroke="#0d1174" points="95,-144 19,-144 19,-92 95,-92 95,-144"/>
<text text-anchor="middle" x="57" y="-132" font-family="Arial" font-size="10.00" fill="#ffffff">random_array</text>
<text text-anchor="middle" x="57" y="-121" font-family="Arial" font-size="10.00" fill="#ffffff">1.02%</text>
<text text-anchor="middle" x="57" y="-110" font-family="Arial" font-size="10.00" fill="#ffffff">(1.02%)</text>
<text text-anchor="middle" x="57" y="-99" font-family="Arial" font-size="10.00" fill="#ffffff">27×</text>
</g>
<!-- 2&#45;&gt;4 -->
<g id="edge2" class="edge">
<title>2&#45;&gt;4</title>
<path fill="none" stroke="#0d1174" stroke-width="0.5" d="M117.6,-183.93C106.86,-172.42 94.08,-158.73 83.04,-146.9"/>
<polygon fill="#0d1174" stroke="#0d1174" stroke-width="0.5" points="83.85,-145.97 80.56,-144.25 82.06,-147.64 83.85,-145.97"/>
<text text-anchor="middle" x="123" y="-167" font-family="Arial" font-size="10.00" fill="#0d1174">1.02%</text>
<text text-anchor="middle" x="123" y="-156" font-family="Arial" font-size="10.00" fill="#0d1174">27×</text>
</g>
<!-- 5 -->
<g id="node4" class="node">
<title>5</title>
<polygon fill="#0d1174" stroke="#0d1174" points="178,-144 104,-144 104,-92 178,-92 178,-144"/>
<text text-anchor="middle" x="141" y="-132" font-family="Arial" font-size="10.00" fill="#ffffff">convoluzione</text>
<text text-anchor="middle" x="141" y="-121" font-family="Arial" font-size="10.00" fill="#ffffff">1.02%</text>
<text text-anchor="middle" x="141" y="-110" font-family="Arial" font-size="10.00" fill="#ffffff">(0.34%)</text>
<text text-anchor="middle" x="141" y="-99" font-family="Arial" font-size="10.00" fill="#ffffff">3×</text>
</g>
<!-- 2&#45;&gt;5 -->
<g id="edge3" class="edge">
<title>2&#45;&gt;5</title>
<path fill="none" stroke="#0d1174" stroke-width="0.5" d="M141,-183.93C141,-172.71 141,-159.42 141,-147.8"/>
<polygon fill="#0d1174" stroke="#0d1174" stroke-width="0.5" points="142.23,-147.75 141,-144.25 139.78,-147.75 142.23,-147.75"/>
<text text-anchor="middle" x="155" y="-167" font-family="Arial" font-size="10.00" fill="#0d1174">1.02%</text>
<text text-anchor="middle" x="155" y="-156" font-family="Arial" font-size="10.00" fill="#0d1174">3×</text>
</g>
<!-- 7 -->
<g id="node5" class="node">
<title>7</title>
<polygon fill="#0d1074" stroke="#0d1074" points="263,-144 187,-144 187,-92 263,-92 263,-144"/>
<text text-anchor="middle" x="225" y="-132" font-family="Arial" font-size="10.00" fill="#ffffff">mat_mat_mul</text>
<text text-anchor="middle" x="225" y="-121" font-family="Arial" font-size="10.00" fill="#ffffff">0.68%</text>
<text text-anchor="middle" x="225" y="-110" font-family="Arial" font-size="10.00" fill="#ffffff">(0.00%)</text>
<text text-anchor="middle" x="225" y="-99" font-family="Arial" font-size="10.00" fill="#ffffff">8×</text>
</g>
<!-- 2&#45;&gt;7 -->
<g id="edge4" class="edge">
<title>2&#45;&gt;7</title>
<path fill="none" stroke="#0d1074" stroke-width="0.5" d="M164.4,-183.93C175.14,-172.42 187.92,-158.73 198.96,-146.9"/>
<polygon fill="#0d1074" stroke="#0d1074" stroke-width="0.5" points="199.94,-147.64 201.44,-144.25 198.15,-145.97 199.94,-147.64"/>
<text text-anchor="middle" x="207" y="-167" font-family="Arial" font-size="10.00" fill="#0d1074">0.68%</text>
<text text-anchor="middle" x="207" y="-156" font-family="Arial" font-size="10.00" fill="#0d1074">8×</text>
</g>
<!-- 6 -->
<g id="node7" class="node">
<title>6</title>
<polygon fill="#0d1074" stroke="#0d1074" points="170.5,-52 111.5,-52 111.5,0 170.5,0 170.5,-52"/>
<text text-anchor="middle" x="141" y="-40" font-family="Arial" font-size="10.00" fill="#ffffff">c_dot</text>
<text text-anchor="middle" x="141" y="-29" font-family="Arial" font-size="10.00" fill="#ffffff">0.68%</text>
<text text-anchor="middle" x="141" y="-18" font-family="Arial" font-size="10.00" fill="#ffffff">(0.68%)</text>
<text text-anchor="middle" x="141" y="-7" font-family="Arial" font-size="10.00" fill="#ffffff">3000000×</text>
</g>
<!-- 5&#45;&gt;6 -->
<g id="edge6" class="edge">
<title>5&#45;&gt;6</title>
<path fill="none" stroke="#0d1074" stroke-width="0.5" d="M141,-91.93C141,-80.71 141,-67.42 141,-55.8"/>
<polygon fill="#0d1074" stroke="#0d1074" stroke-width="0.5" points="142.23,-55.75 141,-52.25 139.78,-55.75 142.23,-55.75"/>
<text text-anchor="middle" x="162.5" y="-75" font-family="Arial" font-size="10.00" fill="#0d1074">0.68%</text>
<text text-anchor="middle" x="162.5" y="-64" font-family="Arial" font-size="10.00" fill="#0d1074">3000000×</text>
</g>
<!-- 8 -->
<g id="node8" class="node">
<title>8</title>
<polygon fill="#0d1074" stroke="#0d1074" points="254.5,-52 195.5,-52 195.5,0 254.5,0 254.5,-52"/>
<text text-anchor="middle" x="225" y="-40" font-family="Arial" font-size="10.00" fill="#ffffff">transpose</text>
<text text-anchor="middle" x="225" y="-29" font-family="Arial" font-size="10.00" fill="#ffffff">0.68%</text>
<text text-anchor="middle" x="225" y="-18" font-family="Arial" font-size="10.00" fill="#ffffff">(0.68%)</text>
<text text-anchor="middle" x="225" y="-7" font-family="Arial" font-size="10.00" fill="#ffffff">8×</text>
</g>
<!-- 7&#45;&gt;8 -->
<g id="edge7" class="edge">
<title>7&#45;&gt;8</title>
<path fill="none" stroke="#0d1074" stroke-width="0.5" d="M225,-91.93C225,-80.71 225,-67.42 225,-55.8"/>
<polygon fill="#0d1074" stroke="#0d1074" stroke-width="0.5" points="226.23,-55.75 225,-52.25 223.78,-55.75 226.23,-55.75"/>
<text text-anchor="middle" x="239" y="-75" font-family="Arial" font-size="10.00" fill="#0d1074">0.68%</text>
<text text-anchor="middle" x="239" y="-64" font-family="Arial" font-size="10.00" fill="#0d1074">8×</text>
</g>
<!-- 3 -->
<g id="node6" class="node">
<title>3</title>
<polygon fill="#0d1876" stroke="#0d1876" points="166,-322.5 116,-322.5 116,-281.5 166,-281.5 166,-322.5"/>
<text text-anchor="middle" x="141" y="-310.5" font-family="Arial" font-size="10.00" fill="#ffffff">main</text>
<text text-anchor="middle" x="141" y="-299.5" font-family="Arial" font-size="10.00" fill="#ffffff">2.73%</text>
<text text-anchor="middle" x="141" y="-288.5" font-family="Arial" font-size="10.00" fill="#ffffff">(0.00%)</text>
</g>
<!-- 3&#45;&gt;2 -->
<g id="edge5" class="edge">
<title>3&#45;&gt;2</title>
<path fill="none" stroke="#0d1876" stroke-width="0.5" d="M141,-281.47C141,-269.37 141,-253.61 141,-240.07"/>
<polygon fill="#0d1876" stroke="#0d1876" stroke-width="0.5" points="142.23,-239.81 141,-236.31 139.78,-239.81 142.23,-239.81"/>
<text text-anchor="middle" x="155" y="-259" font-family="Arial" font-size="10.00" fill="#0d1876">2.73%</text>
<text text-anchor="middle" x="155" y="-248" font-family="Arial" font-size="10.00" fill="#0d1876">1×</text>
</g>
<!-- 9 -->
<g id="node9" class="node">
<title>9</title>
<polygon fill="#0d1074" stroke="#0d1074" points="225,-322.5 175,-322.5 175,-281.5 225,-281.5 225,-322.5"/>
<text text-anchor="middle" x="200" y="-310.5" font-family="Arial" font-size="10.00" fill="#ffffff">_init</text>
<text text-anchor="middle" x="200" y="-299.5" font-family="Arial" font-size="10.00" fill="#ffffff">0.68%</text>
<text text-anchor="middle" x="200" y="-288.5" font-family="Arial" font-size="10.00" fill="#ffffff">(0.68%)</text>
</g>
</g>
</svg>
